<svg id="Layer_1" data-name="Layer 1" xmlns="http://www.w3.org/2000/svg" viewBox="0 0 512 512"><title>monitor-graph-stats-handdrawn</title><path d="M498.47,345.88s3.09,1.76,3.08,1.78c-.34.58-11.18-2.17-11.4-1.78s11.69,6.17,11.44,6.61-7.37-3.7-7.57-3.35c-.35.6,1.76,0,1.34.78-.14.24-6.22-2.73-6.37-2.47-.44.77,10,5.26,9.76,5.65-.76,1.32-22.19-7.79-22.62-7-.92,1.6,19.77,9.63,19,11-.65,1.13-20.56-12.49-21.39-11.06-.51.89,25,13.33,24.52,14.19-.69,1.2-20.78-9.65-21.54-8.33-.66,1.15,10.58,4,9.67,5.59-.39.68-19.63-8.72-20.29-7.58-.78,1.35,8.37,2.88,7.52,4.35-.37.64-18.46-6.94-19-6-.8,1.39,14.42,7.23,13.94,8.06-.15.26-9-2.35-9.26-2-.43.74,1.93.06,1.48.85-.32.56-15.35-5.53-15.75-4.83-.5.86,16.24,8.06,15.67,9.06-.87,1.5-28-12.39-28.68-11.15s21.46,10.66,20.7,12c-.89,1.54-25.28-14.5-26-13.31-.54.94,12.37,5.06,11.47,6.63-.3.53-12.43-6.06-12.91-5.23s20.92,10,20,11.57c-.44.76-11.73-6.45-12.14-5.74-.82,1.42,4.66.65,3.77,2.18-.51.88-13.69-5.95-14-5.34-.52.9,4.71,1.72,4.28,2.47-.28.48-12.77-2.6-13.16-1.92-.74,1.28,5.35,1.41,4.62,2.67-.31.55-8.58-2.68-8.82-2.26-.76,1.31,2.9-.5,2,1.13-.34.6-18.5-5.85-19-5-.68,1.17,13.52,6.67,13,7.53-.22.38-13.58-4.17-14-3.37-.59,1,14.94,7.21,14.32,8.29-.75,1.3-20-10.26-20.64-9.24s7.17,2.27,6.36,3.68c-.28.49-13.85-6.59-14.17-6-.46.79,6.66,2.91,6.25,3.62-.32.55-10.39-5.63-10.58-5.3-.86,1.49,10.87,4.66,10.17,5.88-.38.67-11.91-2.74-12.31-2.05-.8,1.38,3.94,1,3.38,2-.24.42-12.29-5.08-12.51-4.7-.92,1.59,7.68,3.12,7.11,4.11-.15.27-6.5-2.35-6.61-2.15-.56,1,12.58,5.63,11.87,6.87-.29.5-8.26-4.21-8.52-3.76-.86,1.48,10.67,4.72,10,5.81-.8,1.38-26-12.86-26.68-11.69-.57,1,21.19,10.56,20.46,11.83s-29.26-13.18-30.3-11.37c-.45.77,15.34,7.37,14.69,8.5-.37.64-13.6-2.92-14-2.25-.56,1,8.48,3.27,7.77,4.5-.56,1-22.92-11.2-23.48-10.23s7.88,2.86,7.14,4.13c-.38.67-16.24-4.49-16.62-3.83-.91,1.58,7.36,2.51,6.6,3.82-.12.21-3.86.59-4,.78-.81,1.41,5.83,1.93,5.21,3-.43.74-12.16-5.68-12.41-5.26-.86,1.5,13.17,5.47,12.24,7.08-.5.87-24.68-13.37-25.31-12.28s20,9.41,19,11-24.6-11.92-25.43-10.48c-.59,1,15.33,7.79,14.86,8.6s-22.67-7.94-23.23-7c-.44.76,18.65,9.3,18,10.41-.49.86-25.63-9.83-26.05-9.09s19.71,9.56,18.92,10.94-26-11.57-26.61-10.43c-.83,1.45,18.45,9.42,17.91,10.36S260.38,349.32,260,350c-.61,1.06,6,1.77,5.27,3.05-.51.88-14.49-5.28-15-4.4-.85,1.47,14.33,7,13.77,8s-19.51-7.89-19.89-7.23c-.52.91,17.22,8.3,16.5,9.54-.83,1.43-22.58-13.91-23.49-12.33-.42.73,21.05,11,20.54,11.88-.61,1.06-15.33-9-15.79-8.17-.6,1,14.28,6.89,13.69,7.92-.71,1.23-20.82-13.38-21.45-12.29s14,6.76,13.43,7.77c0,.09-1.73,0-1.76.08-.69,1.19,5.27,1.12,4.44,2.57-.29.5-8.63-5.47-9-4.88-.83,1.45,9,4.24,8.6,5s-17.09-6.27-17.72-5.17c-.53.92,10.48,4.58,9.84,5.69-.74,1.29-19.1-10.71-19.79-9.5-.9,1.56,17.74,8.46,17,9.81-.53.91-14.78-7.31-15.23-6.54-.7,1.22,17.61,8.18,16.74,9.69-.55,1-27.6-11.17-28.28-10-.5.87,9.72,4.41,9.2,5.32-.23.4-12.43-5-12.78-4.4-.53.91,4.75.6,3.82,2.21-.59,1-20.29-6.46-20.78-5.62s11,4.38,10.13,5.86c-.66,1.14-18.17-5.37-18.5-4.8-.71,1.24,17,8.07,16.26,9.4-.47.82-17.39-9.52-17.76-8.88-.81,1.4,8.16,3,7.41,4.29-.11.2-5.08-1.74-5.25-1.44-.45.79,1.76-1,.89.52-.12.21-3.35.66-3.41.76-.63,1.09,8.38,3.34,7.73,4.47-.43.74-18.62-9.38-19-8.74-.57,1,16.94,8.09,16.2,9.37-.35.61-13.9-5.83-14.33-5.09s6.68,2.77,6.21,3.59c-.58,1-18.75-11-19.28-10s20.2,9.74,19.36,11.2-23.77-10.85-24.35-9.84c-.42.74,7.57,2.76,6.87,4-.25.44-7.14-3.53-7.38-3.12-.93,1.61,7.58,2.31,6.68,3.87-.42.73-14.42-3.39-14.75-2.82-.45.79,10.72,4.64,10,5.81-.55,1-17.59-11.09-18.13-10.16-.69,1.19,11.72,5.44,11.14,6.45-.15.26-6.29,1.27-6.46,1.57-.56,1,9.08,3.95,8.51,4.92s-16-7.62-16.41-6.87,13.65,6.17,12.9,7.46c-.34.59-15.79-6.59-16.2-5.88-.92,1.6,8.79,2.89,7.84,4.54-.48.83-15.79-9.67-16.43-8.56-.52.9,5,1.71,4.49,2.6-.28.49-13.71-4.3-14-3.78-.42.72,11.67,5,10.92,6.32-.37.64-11.43-5.23-11.74-4.7-.91,1.58,11.9,4.8,11,6.37-.53.92-13.47-8.89-14-7.92s17,8.51,16.4,9.49S103,345.09,102.2,346.4s24.63,12.79,24,13.88-24-10.9-24.51-10.06c-.66,1.14,11.61,5.32,11,6.37-.22.39-12.76-2.85-13.19-2.1-.87,1.52,10.39,4.36,9.68,5.6-.88,1.52-25.75-12.45-26.3-11.49s21.11,10.14,20.22,11.69c-.35.6-14.19-6.9-14.45-6.47-.91,1.58,3.11,0,2.34,1.35-.43.75-22.31-10.18-22.94-9.1s23.76,12.4,23.18,13.41-32-14.14-33-12.42c-.6,1,22,10.93,21.21,12.27-.57,1-23.17-13.93-23.7-13-.9,1.57,19.08,9.67,18.49,10.7-.71,1.23-21-8.18-21.43-7.45s19,9,18.13,10.49c-.37.65-19.63-10.52-20.17-9.59-.7,1.22,16.69,7.75,15.87,9.18-.29.51-12.87-6.88-13.09-6.49-.91,1.57,6,2,5.34,3.09-.31.53-18.7-5.87-19.17-5.06-.77,1.33,16.19,7.57,15.42,8.92-.52.91-16.21-8.69-16.8-7.68s10.84,5.2,10.38,6c-.35.61-19.57-6.54-19.9-6-.54.94,5.12,1.59,4.53,2.62-.38.66-12.32-5.36-12.67-4.76-.77,1.33,8.93,3.5,8.21,4.75-.2.35-10.69-6-11.08-5.35-.59,1,10,4.19,9.27,5.36-.24.42-10.19-.77-10.52-.19s10.69,5.6,10.43,6c-.35.6-10.24-2.06-10.41-1.78,0,0,3.1,1.74,3.08,1.78" fill="none" stroke="#999" stroke-linecap="round" stroke-linejoin="round" stroke-width="1.15"/><path d="M184.35,225.75c-.24.41,1.46-.33,1,.55-.13.22-4.58,3.35-4.68,3.52-.24.42,1,0,.75.43s6.4,4.83,6.24,5.11c-.39.67,3.09,1.07,2.78,1.61s-11.81-5.33-12.26-4.56c-.27.47,13.43,6.81,13,7.53-.12.21-.91,3.33-1,3.43-.25.43,2.34.44,1.94,1.12s-14.16-4.64-14.67-3.76c-.3.52,1.47.06,1.13.65-.25.43,6.11,8,5.81,8.55-.46.8,1.38-.13,1,.56-.18.31-.85,4.92-1,5.13-.29.5,1.51-.36,1,.57-.14.24-.82,5.59-1,5.85-.43.75,1.46-.25,1,.57-.2.35-.88,5.86-1,6-.25.43,1.53-.35,1,.57-.2.35-7.14-.66-7.35-.28-.42.73,12,6,11.54,6.68-.11.19-.54,4.53-.68,4.76-.31.54,1.14-.1.81.47-.46.8-18.58-7.33-19-6.62-.56,1,16.1,7.71,15.41,8.92-.43.75-13.53-9-14.08-8s21.39,10.5,20.58,11.9c-.55.95-15.71-9.14-16.27-8.17s2.23.33,1.81,1c-.2.35-13-2.31-13.24-1.85-.81,1.41,4.8,1.19,4.11,2.38-.15.26-7.63-2.91-7.82-2.59-.49.85,15.33,7.77,14.85,8.59-.63,1.09-19.53-9.15-20.12-8.13-.79,1.36,2.92.56,2.43,1.41" fill="none" stroke="#999" stroke-linecap="round" stroke-linejoin="round" stroke-width="1.15"/><path d="M189.69,207.55s3.09,1.76,3.07,1.78c-.34.58-11.18-2.17-11.4-1.78s11.66,6.16,11.41,6.6-7.34-3.68-7.55-3.33c-.35.6,1.73,0,1.31.76-.13.23-6.19-2.71-6.34-2.45-.44.77,9.95,5.24,9.73,5.63-.76,1.31-22.15-7.77-22.58-7-.92,1.59,19.69,9.6,18.92,10.94-.65,1.12-20.5-12.45-21.32-11-.56,1,27.21,14.5,26.67,15.43-.76,1.33-22.84-11-23.69-9.57s20.23,8.77,19,11c-.59,1-28.6-14.66-29.58-13-.77,1.33,8.09,2.74,7.25,4.19-.36.63-18.2-6.77-18.73-5.84-.79,1.37,14.22,7.12,13.74,7.95-.15.26-8.85-2.23-9.06-1.87-.42.74,1.79,0,1.33.77-.26.44-12.35-3.6-12.67-3-.43.75,13.15,6.45,12.65,7.32s-15.86-4.63-16.24-4,11.24,5.49,10.8,6.25-12.76-6.45-13.1-5.86,2.09,0,1.57.91c-.06.11,1,2.57.87,2.74-.27.48,10.63,4.93,10.1,5.84-.24.41-6.55-3-6.78-2.64-.47.82,1.51-.31,1,.58-.08.14-.94,2.11-1,2.21-.3.52,1.25.14,1,.58-.11.19-.83,4.85-1,5.12-.42.74,1.41-.15,1,.58-.09.15-.93,2.16-1,2.27-.44.76,1.54-.37,1,.58-.1.17-4.6,3-4.73,3.22-.39.68,3.39,1.3,3.1,1.79-.12.21,4.38,6.68,4.11,7.14s4.75,1.92,4.39,2.54c-.27.46-7.63-2.2-7.84-1.84-.31.55,1.46-.24,1,.57l-1,1.59c-.26.46,1.22.16,1,.57s-6-2.93-6.16-2.74c-.49.86.64-.57.23.14-.29.5,5.24,7.42,4.95,7.93-.46.8,1.31,0,1,.57,0,.07-.94,1.9-1,2-.53.91,1.31,0,1,.57,0,.06-.87,1.11-.9,1.15-.32.56,2.33.4,1.92,1.11-.14.25,3.58,2.94,3.45,3.16-.49.85.46-.57.1.06s-10-2.61-10.26-2.19,10.93,5.34,10.51,6.08c-.21.37-9.39,0-9.7.54-.58,1,22.78,11.21,21.93,12.69-.29.5-10.81-1.12-11.11-.59-.49.85,5.57,1.79,5,2.86-.27.47-11.56-4-11.83-3.49-.39.68,2.81.55,2.35,1.36-.22.38-9.6-.28-9.82.11s7.52,4,7.36,4.26-7.14-2.13-7.35-1.76c0,0,3.09,1.75,3.07,1.78" fill="none" stroke="#999" stroke-linecap="round" stroke-linejoin="round" stroke-width="1.15"/><path d="M248.92,178.64c-.24.41,1.46-.34.95.55-.13.22-4.58,3.35-4.68,3.52-.24.42,1,0,.74.43s6.41,4.84,6.25,5.11c-.39.67,3.08,1.06,2.77,1.6s-11.81-5.32-12.25-4.55c-.27.47,13.42,6.8,13,7.52-.12.21-.9,3.34-1,3.44-.25.43,2.32.43,1.93,1.12s-14.15-4.64-14.66-3.76c-.3.52,1.45.06,1.11.64-.25.43,6.12,8,5.82,8.55-.46.8,1.36-.14,1,.56-.18.31-.84,4.93-1,5.14-.29.5,1.5-.36,1,.56-.14.24-.8,5.59-1,5.86-.43.75,1.44-.26,1,.56-.2.35-.86,5.87-1,6-.25.43,1.5-.36,1,.56-.2.35-7.12-.65-7.33-.27-.42.73,11.93,6,11.52,6.66-.13.22-5,1.91-5.15,2.18-.27.46,1.26.08,1,.57-.12.21-4.9,1.28-5,1.46-.33.57,6.13,2.61,5.73,3.31-.13.22-4-2.57-4.18-2.29-.34.58,11.23,5.41,10.76,6.23-.27.47-8-4-8.28-3.55s1.22.15,1,.57c-.08.14-.87,5.06-1,5.25-.47.82,1.38-.12,1,.57-.05.09,1.15,2.45,1.09,2.56-.28.49,5.38,2.48,5.11,3s-7,.58-7.18.92c-.46.79,1.27.08,1,.57-.11.19-.9,3.67-1,3.82-.29.5,1.24.14,1,.57-.11.19-3.72,2.43-3.79,2.56-.25.44,1.87-.16,1.33.77,0,.07,1.55,1.76,1.47,1.89-.27.48,1.52-.33,1,.58-.15.26-.9,4.06-1,4.23-.25.43,1.26.13,1,.58-.06.1,1.7,1.11,1.66,1.17-.49.85,1.36.09,1.06.61-.2.35-8.55-2.2-8.74-1.87s3.66,1.14,3.24,1.87c-.15.27-1.74,4.65-1.89,4.91-.42.74,4.33,1.38,3.84,2.22-.17.29-3.16,4.19-3.29,4.41-.36.62,7.56,3.35,7.12,4.12s-16.07-7.54-16.53-6.74c-.84,1.46,11.25,4.95,10.58,6.12-.59,1-19.09-5.57-19.44-5-.63,1.09,11.3,5.26,10.75,6.22-.28.48-15.56-6.23-16.15-5.22s10.55,4.8,10,5.78c-.2.34-8.1-3.38-8.24-3.13-.46.8,7.93,2.87,7.19,4.16" fill="none" stroke="#999" stroke-linecap="round" stroke-linejoin="round" stroke-width="1.15"/><path d="M254.27,160.44s3.09,1.76,3.07,1.78c-.34.58-11.17-2.17-11.4-1.78s11.66,6.16,11.41,6.6-7.34-3.68-7.54-3.33c-.35.6,1.73,0,1.31.76-.13.23-6.19-2.7-6.34-2.45-.44.77,9.94,5.24,9.72,5.62-.76,1.31-22.15-7.76-22.57-7-.92,1.59,19.69,9.59,18.91,10.94-.65,1.12-20.49-12.44-21.32-11-.56,1,27.2,14.49,26.67,15.43-.76,1.32-22.84-11-23.68-9.57s20.22,8.77,19,11c-.59,1-28.6-14.66-29.58-13-.77,1.33,8.09,2.74,7.25,4.19-.36.63-18.2-6.77-18.73-5.84-.79,1.37,14.22,7.12,13.74,7.95-.15.26-8.85-2.23-9.06-1.87-.42.74,1.79,0,1.33.77-.26.44-12.35-3.6-12.67-3-.43.75,13.15,6.45,12.65,7.32s-15.86-4.63-16.25-4,11.24,5.49,10.8,6.25-12.77-6.45-13.11-5.87,2.09,0,1.57.91c-.06.11,1,2.57.86,2.74-.27.48,10.63,4.93,10.11,5.85-.24.41-6.56-3-6.78-2.64-.47.82,1.52-.3,1,.58-.08.14-.95,2.1-1,2.2-.3.52,1.25.15,1,.58-.11.19-.84,4.85-1,5.11-.42.74,1.42-.15,1,.58-.09.15-.93,2.15-1,2.26-.44.76,1.54-.36,1,.58-.1.17-4.6,3-4.74,3.21-.39.68,3.39,1.3,3.11,1.8-.12.21,4.37,6.67,4.11,7.13s4.76,1.93,4.4,2.55c-.27.47-7.64-2.2-7.85-1.84-.31.55,1.46-.24,1,.57l-1,1.59c-.26.46,1.23.17,1,.57s-6.05-2.93-6.16-2.74c-.49.86.64-.56.24.14-.29.5,5.23,7.41,4.94,7.93-.46.8,1.31,0,1,.57,0,.07-.95,1.9-1,2-.53.91,1.32,0,1,.57,0,.06-.88,1.11-.9,1.15-.33.56,2.34.41,1.93,1.12-.14.25,3.57,2.93,3.44,3.16-.49.85.47-.57.1.06s-10-2.62-10.27-2.2,10.94,5.35,10.51,6.08c-.21.37-9.4,0-9.71.54s5.12,2.1,4.74,2.74c-.14.24-.67,5.11-.81,5.37-.32.56,1.38-.14,1,.57-.06.11-.91,2.67-1,2.79-.36.62,1.4-.17,1,.56-.12.21-.85,5-1,5.23-.52.91,1.41-.19,1,.56-.08.14-.9,2.39-1,2.52-.47.81,1.33-.06,1,.56-.07.13.65,2.2.6,2.27-.5.86,2.8.39,2.27,1.31-.21.37-11-4.62-11.26-4.15-.35.62,9.61,4.32,9.08,5.25-.25.44-7.89-.91-8.14-.48-.34.59,5.15,2.36,4.88,2.82-.12.2-1.94,5-2.07,5.26-.25.44,8.39,4,8,4.64-.11.2-5.62,2.5-5.72,2.67-.24.41,9.38,4.37,8.92,5.16-.2.35-7.86,0-8,.31-1.28,2.23,31.34,16.2,30.51,17.65-.74,1.29-29.84-14.38-30.34-13.52-.76,1.31,11.85,4.73,10.93,6.32-.45.77-12.81-4.16-13.26-3.39-.79,1.36,12.58,6.08,12.06,7-.27.47-10.59-2.3-10.78-2-.32.56,7.87,3.54,7.43,4.3s-11.78-6.63-12.24-5.82c-.22.38,9.57,4.92,9.31,5.38-.1.18-2.81-.84-2.89-.71-.27.47,1.06,0,.79.46s-8.11-5.14-8.35-4.72.6-.25.34.2l-.46.83c-.25.43,11.27,5.82,11,6.35s-10.55-6.76-11-6c-.28.49,10.58,5.79,10.44,6s-10.07-2.39-10.43-1.76c0,0,3.09,1.75,3.07,1.78" fill="none" stroke="#999" stroke-linecap="round" stroke-linejoin="round" stroke-width="1.15"/><path d="M313.49,131.53c-.24.41,1.45-.34.94.54-.13.22-4.58,3.35-4.68,3.52-.24.42,1,0,.73.43s6.42,4.84,6.25,5.12c-.39.67,3.07,1.06,2.76,1.6s-11.8-5.32-12.24-4.55c-.27.47,13.41,6.8,13,7.52-.12.21-.9,3.34-1,3.44-.25.43,2.32.43,1.92,1.11s-14.15-4.64-14.65-3.75c-.3.52,1.44.05,1.11.64-.25.43,6.13,8,5.83,8.55-.46.8,1.35-.14,1,.55-.18.31-.83,4.93-.95,5.14-.29.5,1.49-.37,1,.55-.14.24-.8,5.6-1,5.87-.43.75,1.43-.27,1,.55-.2.35-.85,5.88-1,6.05-.25.43,1.49-.36,1,.56-.2.35-7.11-.64-7.32-.27-.42.73,11.92,5.95,11.51,6.66-.13.22-5,1.91-5.14,2.18-.27.46,1.25.07,1,.56-.12.21-4.89,1.29-5,1.47-.33.57,6.12,2.61,5.71,3.31-.13.22-4-2.56-4.17-2.28-.34.58,11.22,5.41,10.75,6.22-.27.47-8-4-8.27-3.55s1.21.15,1,.56c-.08.14-.86,5.07-1,5.26-.47.82,1.37-.13,1,.56-.05.09,1.17,2.46,1.11,2.57-.28.49,5.37,2.47,5.09,2.95s-7,.59-7.17.93c-.46.79,1.26.07,1,.56-.11.19-.89,3.68-1,3.83-.28.49,1.22.14,1,.57-.11.19-3.7,2.44-3.78,2.57-.25.44,1.85-.17,1.32.76,0,.07,1.56,1.77,1.49,1.9-.27.48,1.5-.34,1,.57-.15.26-.88,4.07-1,4.24-.25.43,1.24.12,1,.57-.06.1,1.71,1.12,1.68,1.18-.49.85,1.34.08,1,.6-.2.35-8.53-2.19-8.72-1.86s3.64,1.13,3.22,1.86c-.15.27-1.72,4.66-1.87,4.92-.42.74,4.31,1.37,3.82,2.21-.25.43,2.74,7.46,2.55,7.79s1.58.21,1.28.74c-.15.26-5.71-.83-5.86-.57-.49.85,1.16-.23.77.45-.21.36,1.24,6.71,1.12,6.93-.37.64,1.31,0,1,.57-.07.13.82,4.23.67,4.51-.34.58.59-.41.26.15-.07.13-1.87,2.55-1.92,2.64-.27.47,1.43-.17,1,.58,0,0-.57-.16-.59-.12-.4.69,4.78,2.16,4.51,2.61-.15.26-4.75.44-4.92.74-.37.64,1.35,0,1,.58-.14.24-4.36,2.82-4.46,3-.33.58,3.75,1,3.26,1.89-.06.11.25,2.24.2,2.33-.3.53,1.25.15,1,.58s-6.12-3.71-6.34-3.33c-.34.59.54-.9,0,0-.23.41,5.49,8.71,5.32,9-.49.86,1.34,0,1,.58-.05.09-.92,2.47-1,2.63-.4.7,1.53-.33,1,.58-.13.22-7.23-1.07-7.4-.78-.47.82,11.86,6.21,11.58,6.7-.14.25-5.74-1.06-5.9-.79-.47.82,2.27,0,1.72,1-.14.25-4.24,2.38-4.33,2.54-.81,1.41,3.06.48,2.5,1.45-.4.69-13.73-6.6-14-6.1-.55.95,8.52,3.79,8,4.64s-13.08-4.05-13.54-3.27c-.58,1,15.55,7.75,15,8.68-.78,1.35-22-10.85-22.59-9.85s18,8.47,17.16,9.93c-.52.9-20.52-10-21-9.13-.68,1.19,12.45,6,11.95,6.91" fill="none" stroke="#999" stroke-linecap="round" stroke-linejoin="round" stroke-width="1.15"/><path d="M318.84,113.32s3.09,1.76,3.07,1.78c-.34.58-11.17-2.17-11.4-1.78s11.66,6.16,11.41,6.6-7.34-3.68-7.54-3.33c-.35.6,1.73,0,1.31.76-.13.23-6.19-2.7-6.33-2.44-.44.77,9.94,5.24,9.72,5.62-.76,1.31-22.15-7.76-22.57-7-.92,1.59,19.69,9.59,18.91,10.94-.65,1.12-20.49-12.44-21.31-11-.56,1,27.2,14.49,26.66,15.42-.76,1.32-22.84-11-23.68-9.57s20.22,8.77,19,11c-.59,1-28.59-14.65-29.57-13-.77,1.33,8.09,2.74,7.25,4.19-.36.63-18.2-6.77-18.73-5.84-.79,1.37,14.22,7.12,13.74,7.95-.15.26-8.85-2.23-9.06-1.87-.42.74,1.79,0,1.33.77-.26.44-12.35-3.6-12.67-3-.43.75,13.15,6.45,12.65,7.32s-15.87-4.63-16.25-4,11.24,5.49,10.81,6.25-12.77-6.46-13.11-5.87,2.09,0,1.57.91c-.06.11,1,2.57.86,2.74-.27.48,10.64,4.93,10.11,5.85-.24.41-6.56-3-6.79-2.64-.47.82,1.52-.3,1,.58-.08.14-.95,2.1-1,2.2-.3.52,1.26.15,1,.58-.11.19-.85,4.85-1,5.11-.42.74,1.42-.15,1,.58-.09.15-.94,2.15-1,2.26-.44.76,1.55-.36,1,.58-.1.17-4.61,3-4.75,3.21-.39.68,3.4,1.3,3.11,1.8-.12.21,4.36,6.67,4.1,7.13s4.76,1.93,4.4,2.55c-.27.47-7.65-2.21-7.86-1.84-.31.55,1.47-.24,1,.58l-1,1.58c-.26.46,1.23.17,1,.58s-6.06-2.93-6.17-2.74c-.5.86.65-.56.24.14-.29.5,5.23,7.41,4.93,7.92-.46.8,1.32,0,1,.58l-1,2c-.53.91,1.32,0,1,.57,0,.06-.89,1.11-.91,1.15-.33.56,2.35.41,1.94,1.12-.14.25,3.56,2.93,3.43,3.16-.49.85.47-.56.11.06s-10-2.62-10.27-2.2,10.94,5.35,10.52,6.08c-.21.37-9.41,0-9.72.53s5.13,2.1,4.75,2.75c-.14.24-.67,5.11-.82,5.36-.32.56,1.39-.13,1,.57-.06.11-.92,2.67-1,2.78-.36.62,1.41-.16,1,.57-.12.21-.86,5-1,5.22-.52.91,1.42-.18,1,.57-.08.14-.9,2.38-1,2.51-.47.81,1.34-.05,1,.57-.07.13.64,2.19.59,2.27-.5.86,2.81.39,2.28,1.32-.21.37-11-4.62-11.27-4.16-.36.62,9.62,4.33,9.09,5.26-.25.44-7.9-.91-8.15-.49-.34.59,5.16,2.37,4.89,2.83-.12.2-2,5-2.08,5.26-.25.44,8.4,4,8,4.65-.11.2-5.64,2.5-5.73,2.66-.24.41,9.39,4.37,8.94,5.17-.2.35-7.87,0-8.05.3-.48.83,8.23,4,7.92,4.58-.17.29-7.29-.44-7.41-.25-.35.61,1.39-.18,1,.56-.14.24-3.51,1.93-3.65,2.17-.49.84,4.1,1.63,3.78,2.19-.09.16-2.44,2.71-2.5,2.83-.3.52,6.91,3.05,6.5,3.76s-10.89-6-11.32-5.29c-.24.42,10.84,5.59,10.54,6.1-.15.26-4-1.62-4.13-1.43-.35.6,4,1.54,3.69,2.13s-10.92-7-11.25-6.39,3.77,1.41,3.43,2c-.15.25,4,3.24,3.94,3.38-.39.68,1.44-.27,1,.56,0,0-.93-.31-1-.25-.48.83,1.21.14,1,.56-.09.15-.8,4.25-1,4.53-.31.53,1.33-.08,1,.56-.2.34-5.49-1.65-5.67-1.33-.52.9,7.4,3.25,7,4-.06.11-1.24,1.43-1.29,1.52-.4.7,7.23,3,6.74,3.9-.15.25-7.5,1.61-7.67,1.92-.29.5,1.26,0,1,.55,0,.08-.89,2.32-1,2.44-.3.52,1.49-.37,1,.55-.17.29-4.72,3.36-4.85,3.6-.25.44.59-.79.1.06-.24.43,1.86,6.69,1.73,6.91-1.09,1.89,29.7,14.46,28.53,16.5-.75,1.29-27-15.59-27.63-14.59-1.15,2,18.36,8.15,17.29,10-.28.49-12-6.29-12.38-5.57-.59,1,9.17,2.67,8,4.65-.2.35-5.73-.81-5.83-.64-.7,1.21,10.89,4.64,10.17,5.88-.39.68-17.2-8.49-17.54-7.9-.53.93,15.47,7.34,14.77,8.55-.32.56-12.94-5.2-13.34-4.52s4.38,1.76,4,2.34-9-4.64-9.21-4.21c-.36.63,11,5.16,10.49,6.07-.39.68-12.53-3.68-12.82-3.17-.13.23,10,5.29,9.8,5.67-.34.59-9.47-5.08-9.79-4.52-.21.37,8,4.17,7.82,4.52s-7.64-2.07-7.82-1.76c0,0,3.09,1.75,3.07,1.78" fill="none" stroke="#999" stroke-linecap="round" stroke-linejoin="round" stroke-width="1.15"/><path d="M378.06,160.95c-.24.41,1.45-.34.94.55-.13.22-4.58,3.35-4.68,3.52-.24.42,1,0,.74.43s6.41,4.84,6.25,5.12c-.39.67,3.07,1.06,2.77,1.6s-11.8-5.32-12.25-4.55c-.27.47,13.42,6.8,13,7.52-.12.21-.9,3.34-1,3.44-.25.43,2.32.43,1.93,1.11s-14.15-4.64-14.66-3.76c-.3.52,1.45.05,1.11.64-.25.43,6.13,8,5.82,8.55-.46.8,1.36-.14,1,.55-.18.31-.83,4.93-1,5.14-.29.5,1.49-.37,1,.56-.14.24-.8,5.59-1,5.86-.43.75,1.44-.27,1,.56-.2.35-.86,5.87-1,6-.25.43,1.5-.36,1,.56-.2.35-7.11-.64-7.33-.27-.42.73,11.92,5.95,11.51,6.66-.13.22-5,1.91-5.15,2.18-.27.46,1.25.08,1,.56-.12.21-4.89,1.28-5,1.47-.33.57,6.12,2.61,5.72,3.31-.13.22-4-2.57-4.17-2.29-.34.58,11.22,5.41,10.76,6.22-.27.47-8-4-8.27-3.55s1.22.15,1,.56c-.08.14-.86,5.07-1,5.25-.47.82,1.38-.13,1,.57-.05.09,1.16,2.46,1.1,2.56-.28.49,5.38,2.47,5.1,3s-7,.58-7.18.93c-.46.79,1.27.08,1,.57-.11.19-.89,3.67-1,3.82-.29.49,1.23.14,1,.57-.11.19-3.71,2.44-3.79,2.56-.25.44,1.86-.17,1.33.77,0,.07,1.55,1.76,1.48,1.89-.27.48,1.51-.34,1,.57-.15.26-.89,4.07-1,4.23-.25.43,1.25.13,1,.57-.06.1,1.7,1.12,1.67,1.17-.49.85,1.35.09,1.05.61-.2.35-8.54-2.19-8.73-1.87s3.65,1.14,3.23,1.87c-.15.27-1.73,4.65-1.88,4.91-.42.74,4.32,1.38,3.84,2.22-.25.43,2.73,7.45,2.54,7.78s1.59.21,1.29.74c-.15.26-5.72-.84-5.87-.58-.49.85,1.18-.23.78.45-.21.36,1.23,6.71,1.11,6.92-.37.64,1.33,0,1,.58-.07.13.81,4.23.65,4.5-.34.58.6-.41.28.16-.08.14-.23,3.48-.29,3.58-.36.62,2.65.2,2.07,1.2-.31.54-7.94-5.09-8.25-4.55-.54.94,9.84,4.86,9.48,5.48s-9.19-2.51-9.53-1.92c-.63,1.1,6.31,2.25,5.7,3.3-.7,1.21-24.74-9.85-25.22-9-.57,1,13.85,6.08,13,7.53-.47.81-15.28-7.49-15.66-6.85-.52.91,8.22,3.76,7.79,4.5s-11-6.93-11.37-6.24c-.59,1,10.65,4.07,9.75,5.64-.19.33-8.28-1.44-8.41-1.21-.85,1.47,6.84,2.65,6.28,3.63" fill="none" stroke="#999" stroke-linecap="round" stroke-linejoin="round" stroke-width="1.15"/><path d="M383.41,142.75s3.09,1.76,3.07,1.78c-.34.58-11.17-2.17-11.4-1.78s11.66,6.16,11.41,6.6-7.34-3.68-7.54-3.33c-.35.6,1.73,0,1.31.76-.13.23-6.19-2.7-6.34-2.45-.44.77,9.94,5.24,9.72,5.62-.76,1.31-22.15-7.76-22.57-7-.92,1.59,19.69,9.59,18.91,10.94-.65,1.12-20.49-12.44-21.32-11-.56,1,27.2,14.49,26.66,15.42-.76,1.32-22.84-11-23.68-9.57s20.22,8.77,19,11c-.59,1-28.6-14.65-29.58-13-.77,1.33,8.09,2.74,7.25,4.19-.36.63-18.2-6.77-18.73-5.84-.79,1.37,14.22,7.12,13.74,7.95-.15.26-8.85-2.23-9.06-1.87-.42.74,1.79,0,1.33.77-.26.44-12.35-3.6-12.67-3-.43.75,13.15,6.45,12.65,7.32s-15.86-4.63-16.25-4,11.24,5.49,10.81,6.25S327.32,152,327,152.62s2.09,0,1.57.91c-.06.11,1,2.57.86,2.74-.27.48,10.63,4.93,10.11,5.85-.24.41-6.56-3-6.79-2.64-.47.82,1.52-.3,1,.58-.08.14-.95,2.1-1,2.2-.3.52,1.26.15,1,.58-.11.19-.85,4.85-1,5.11-.42.74,1.42-.15,1,.58-.09.15-.93,2.15-1,2.26-.44.76,1.54-.36,1,.58-.1.17-4.61,3-4.75,3.21-.39.68,3.4,1.3,3.11,1.8-.12.21,4.37,6.67,4.1,7.13s4.76,1.93,4.4,2.55c-.27.47-7.64-2.21-7.85-1.84-.31.55,1.46-.24,1,.58l-1,1.59c-.26.46,1.23.17,1,.57s-6.05-2.93-6.16-2.74c-.49.86.65-.56.24.14-.29.5,5.23,7.41,4.94,7.92-.46.8,1.31,0,1,.57l-1,2c-.53.91,1.32,0,1,.57,0,.06-.88,1.11-.91,1.15-.32.56,2.34.41,1.93,1.12-.14.25,3.57,2.93,3.44,3.16-.49.85.47-.57.11.06s-10-2.62-10.27-2.2S339,204,338.58,204.75c-.21.37-9.4,0-9.72.54s5.12,2.1,4.75,2.75c-.14.24-.67,5.11-.82,5.37-.32.56,1.39-.13,1,.57-.06.11-.91,2.67-1,2.78-.36.62,1.4-.16,1,.57-.12.21-.85,5-1,5.23-.52.91,1.41-.19,1,.57-.08.14-.9,2.38-1,2.51-.47.81,1.33-.05,1,.56-.07.13.64,2.2.6,2.27-.5.86,2.81.39,2.27,1.31-.21.37-11-4.62-11.26-4.15-.35.62,9.61,4.33,9.08,5.25-.25.44-7.9-.91-8.14-.48-.34.58,5.15,2.36,4.89,2.83-.12.2-1.94,5-2.07,5.26-.25.44,8.39,4,8,4.64-.11.2-5.63,2.5-5.73,2.67-.24.41,9.39,4.37,8.93,5.17-.2.35-7.86,0-8,.31-.48.83,8.22,4,7.91,4.58-.17.29-7.29-.44-7.4-.25-.35.61,1.39-.18,1,.56-.14.24-3.5,1.93-3.64,2.17-.49.84,4.09,1.62,3.77,2.18-.09.16-2.43,2.71-2.49,2.83-.3.52,6.91,3,6.5,3.76s-10.88-6-11.31-5.29c-.24.42,10.83,5.59,10.54,6.09-.15.26-4-1.62-4.12-1.42-.35.6,4,1.54,3.68,2.13s-10.91-7-11.24-6.39,3.76,1.4,3.43,2c-.15.25,4,3.24,3.95,3.38-.39.68,1.43-.28,1,.55,0,0-.92-.3-1-.24-.48.83,1.2.13,1,.55-.11.19,1.11,5.27.91,5.61-.67,1.17,16.84,7.87,16,9.27s-21.8-12.51-22.6-11.12c-1,1.75,20.65,9.93,19.78,11.44-.49.84-13.71-6.62-14.12-5.9-.67,1.17,16.48,7.62,15.66,9.06-.47.81-23.52-8.56-24.09-7.58-.24.42,14.19,7.61,13.93,8.06s-13.54-5.73-13.93-5.07c-.14.25,9,4.65,8.79,5.08s-8.58-2.11-8.78-1.76c0,0,3.09,1.74,3.07,1.78" fill="none" stroke="#999" stroke-linecap="round" stroke-linejoin="round" stroke-width="1.15"/><path d="M469.72,88.63c-.24.41,1.5-.32,1,.57-.13.22-4.5,3.4-4.6,3.57-.24.42.9,0,.66.38s6.5,4.88,6.33,5.16c-.38.67,3,1,2.68,1.55s-11.73-5.27-12.17-4.51c-.27.46,13.33,6.76,12.92,7.47-.12.21-.82,3.38-.88,3.49-.25.43,2.24.39,1.85,1.07s-14.07-4.59-14.58-3.71c-.3.52,1.37,0,1,.6-.25.43,6.21,8.06,5.9,8.6-.46.79,1.27-.18.88.51-.18.31-.76,5-.88,5.18-.28.49,1.41-.41.88.51-.14.24-.72,5.64-.88,5.91-.43.74,1.36-.31.88.51-.2.35-.78,5.92-.88,6.09-.25.43,1.42-.4.89.51-.2.34-7-.6-7.25-.23-.42.73,11.84,5.91,11.44,6.61-.13.22-4.92,2-5.07,2.22-.26.46,1.17,0,.89.52-.12.2-4.82,1.33-4.93,1.51-.32.56,6,2.57,5.64,3.26-.12.22-3.94-2.52-4.1-2.24-.33.58,11.14,5.37,10.68,6.18-.27.46-7.92-4-8.2-3.51s1.14.11.9.52c-.08.14-.79,5.11-.9,5.3-.47.81,1.3-.17.9.52-.05.09,1.24,2.5,1.17,2.61-.28.49,5.3,2.43,5,2.91s-6.91.63-7.1,1c-.45.79,1.19,0,.91.52-.11.19-.82,3.72-.91,3.86-.28.49,1.16.1.91.53-.11.19-3.64,2.48-3.71,2.6-.25.43,1.79-.21,1.25.72,0,.07,1.63,1.8,1.55,1.94-.27.47,1.43-.37.91.53-.15.26-.82,4.11-.91,4.27-.25.43,1.17.08.92.53-.06.11,1.78,1.16,1.75,1.22-.49.85,1.27,0,1,.57-.2.35-8.47-2.15-8.66-1.82s3.57,1.1,3.15,1.82c-.15.27-1.66,4.69-1.81,5-.42.73,4.24,1.34,3.76,2.18-.25.43,2.8,7.49,2.61,7.82s1.52.17,1.21.7c-.15.26-5.65-.79-5.8-.54-.49.84,1.1-.26.71.41-.21.36,1.3,6.75,1.18,7-.36.63,1.25,0,.93.54-.07.13.88,4.27.72,4.54-.34.58.53-.44.21.12-.07.13-1.81,2.58-1.86,2.67-.27.46,1.37-.2.94.54,0,0-.51-.12-.53-.09-.39.68,4.72,2.12,4.46,2.58-.15.26-4.7.48-4.87.78-.37.63,1.29-.06.94.54-.14.24-4.31,2.86-4.4,3-.33.58,3.69,1,3.21,1.85-.06.11.31,2.27.26,2.36-.3.52,1.19.12.95.55,0,0-.92-.26-.95-.21-.34.59,1.47-.36.95.55-.12.21-.86,5.22-.95,5.37-.49.85,1.28,0,.95.55-.05.09-.86,2.5-.95,2.66-.4.7,1.48-.36,1,.55-.13.22-7.18-1-7.35-.75-.47.82,11.81,6.18,11.53,6.67-.12.21-5-.58-5.13-.35-.45.77,1.48-.35,1,.55-.13.23-.87,4.35-1,4.49-.48.83,1.29,0,1,.56,0,.08-.93,1.39-1,1.45-.32.55,1.25.06,1,.56-.13.23-.57,3.92-.71,4.15-.34.59,5.53,2.48,5.22,3s-7.13-1.31-7.3-1c-.36.62,7.88,3.43,7.4,4.28-.14.25-5.94,1.56-6.07,1.79-.4.69,2.5.77,2.21,1.28-.16.27-5.33,2-5.47,2.27-.42.72,6.08,2.33,5.57,3.22-.16.28-7-1.56-7.22-1.2s9.88,5,9.58,5.54c-.15.26-4,3-4.17,3.34s1.31,0,1,.57c-.11.19-5.32,3.26-5.44,3.47-.46.79,2.55.71,2.22,1.28-.13.22,2.33,3.29,2.24,3.44-.33.57,1.3,0,1,.57-.16.29-5.8-3.17-6-2.84-.39.68,12.64,6.34,12.22,7.07-.24.43-7.87,1.21-8.13,1.66s4.94,1.65,4.42,2.55c-.12.21-3.38-.51-3.49-.33-.3.52,1.42-.17,1,.57-.12.21-.9,5.5-1,5.66-.41.71,1.38-.09,1,.57-.18.31-3.68,4.24-3.81,4.46-.31.54,9.4,4.53,9,5.21-.14.24-6.06.82-6.19,1-.5.86,1.44-.18,1,.58-.18.32-.81,5.57-1,5.9-.46.8,1.53-.33,1,.58,0,.07-1,1.36-1,1.41-.32.56,1.37,0,1,.58-.16.28-7.36-.79-7.62-.35-.35.61,11.42,5.91,11.12,6.43-.12.21-4.44-.27-4.51-.14-.26.45,1.36,0,1,.59,0,.06-1-.08-1,0-.31.54,1.38-.05,1,.59-.15.27-9,.08-9.19.44-.86,1.48,10.06,3.82,9.19,5.32-.26.46-9.81-5.89-10.13-5.33-.77,1.34,11,5.42,10.6,6.13-.2.34-10.92-4.18-11.24-3.61-.62,1.07,13.18,5.62,12.31,7.12-.54.94-18.75-9.47-19.24-8.63-.74,1.28,12.93,6.13,12.35,7.14-.39.67-16.3-7.66-16.7-7-.91,1.58,10.79,4.13,9.88,5.72-.67,1.16-18.21-9.34-18.62-8.64-.92,1.6,9.45,3.75,8.71,5-.37.64-11.52-4-11.91-3.28-.78,1.35,11.37,5.45,10.88,6.29s-14.19-4.83-14.49-4.3c-.53.92,9.48,3.31,8.54,4.94-.35.61-16.24-6-16.74-5.17-.67,1.16,8,2.44,7,4.07-.2.35-11.34-3.82-11.61-3.35-.88,1.52,8.42,3.86,8,4.62s-12.26-3.46-12.52-3c-.5.87,6.16,1.86,5.42,3.14-.42.72-15-8.24-15.62-7.21s11.36,5.46,10.88,6.29c-.63,1.09-19.72-7.22-20.39-6-.87,1.51,5.48,1.59,4.79,2.77-.29.5-10.38-1.39-10.57-1.06-.87,1.51,1.06-1.33.22.13-.08.14-3.07.26-3.16.42-.53.93,11.84,4.71,10.92,6.32-.48.83-20.68-11.15-21.26-10.14-.41.71,13,5.87,12.32,7.13-.43.74-17.27-5.76-17.56-5.26-.9,1.56,5.27,1,4.37,2.53a28.89,28.89,0,0,1-3-.62c-.56,1,6.08,2.42,5.61,3.24-.33.57-16.29-8.08-16.92-7s19.73,9.36,18.84,10.9-24.44-9-25.06-7.91c-.75,1.3,10.59,4.87,10,5.81-.39.68-14.23-8-14.53-7.51-.47.82,8,2.48,7.1,4.11-.57,1-19-7.63-19.66-6.55-.92,1.6,8.95,3,8,4.64-.56,1-17.66-7.14-18.27-6.08-.73,1.26,12.11,5.49,11.46,6.63-.52.91-18.46-6.2-19-5.26-.9,1.55,21.9,11,21.18,12.25-.61,1.07-29.24-13-29.78-12.07-.8,1.38,14,7.11,13.54,7.83-.29.5-9.53-2.9-9.8-2.43-.55,1,10.28,4.05,9.46,5.47-.4.7-23.71-8.71-24.17-7.91s8,2.58,7.12,4.12c-.36.63-12.6-6.35-13-5.61-.72,1.24,16,7.76,15.36,8.88s-27.73-11.17-28.25-10.27c-.9,1.56,15.87,7.67,15.22,8.8-.3.52-11-4.22-11.33-3.67-.58,1,3.51.69,2.93,1.69-.41.71-15.79-7.29-16.17-6.63-.93,1.61,10.77,4.17,9.88,5.72-.39.68-10.93-4.15-11.25-3.59-.69,1.19,11.53,5.15,10.87,6.29s-20.67-6.89-21-6.28c-.74,1.29,11.6,5,10.87,6.29s-18.49-10-19.08-9,22.52,11.85,22,12.73c-.82,1.43-28-15-29.14-13.08-.5.87,13.68,6.58,13.11,7.58s-19.12-5.7-19.55-5c-.64,1.11,12.91,5.44,12,7-.44.77-12.35-7.51-12.73-6.86s12.85,5.4,12,6.93c-.28.49-7.19-4-7.37-3.67-.73,1.26,6.74,2.14,6,3.46-.29.51-14.92-9-15.3-8.35-.82,1.42,9.79,4.65,9.36,5.41s-12.41-3.89-12.7-3.38c-.82,1.42,15.71,7.11,14.86,8.6-.52.9-20.26-10.23-20.62-9.61-.94,1.63,12.8,5.41,11.93,6.9-.25.44-6.55-3.33-6.72-3-.88,1.52,14,6.12,13.11,7.59-.52.9-23-13.08-23.92-11.53-.59,1,19.16,10,18.71,10.82-1,1.81-28.36-12.8-29-11.67s11.35,5.08,10.71,6.2c-.39.68-11.63-4.45-11.91-4-.47.81,10,3.77,9.16,5.3-.34.59-15.86-4.87-16.3-4.1-.82,1.42,12.58,5.33,11.73,6.79-.27.47-15.28-6.73-15.87-5.71s13.58,6.08,12.81,7.41-20.46-11.22-21.24-9.87c-.58,1,15.62,7.89,15.12,8.75-.7,1.21-26.38-13.84-26.84-13s19,9,18.11,10.47c-.34.58-18.36-7.58-19-6.5s7.07,2.3,6.3,3.64c-.27.46-14.41-3.62-14.68-3.16-.44.76,17.23,8.58,16.63,9.62s-25.28-10.86-26-9.62,17.52,9.11,17.07,9.88c-.92,1.59-23.84-11.85-24.24-11.15s13.93,7,13.49,7.8c-.57,1-18.77-6.37-19.38-5.3-.52.91,13.2,6.68,12.78,7.4-.63,1.1-22.81-12.19-23.58-10.85-.5.86,10.85,5.2,10.38,6s-18.63-6.86-19.1-6c-.69,1.19,20.43,10.2,19.73,11.41s-21.57-9.75-22.36-8.38c-.59,1,2.37.27,1.89,1.1-.33.57-18.66-5.52-19.11-4.73-.69,1.21,12.25,5.25,11.46,6.63-.26.45-7.07-4.52-7.27-4.17-.83,1.44,19.41,9.09,18.48,10.69s-25-15-25.81-13.57,13.15,5.63,12.3,7.11c-.29.5-9-1.5-9.22-1.13-.44.77,4.54.84,3.77,2.18-.34.58-11.33-3.36-11.53-3-.56,1,5.93,2.32,5.45,3.15-.59,1-20.35-9.15-21-7.94-.45.78,8.82,3.48,8.12,4.7-.45.78-17.36-6.31-17.72-5.7-.66,1.14,24.28,12.85,23.76,13.74-.77,1.33-33.8-14.36-34.42-13.28s10.77,4.89,10.19,5.9c-.31.55-17-6.93-17.33-6.42-.72,1.25,14.62,6.36,13.71,7.93" fill="none" stroke="#999" stroke-linecap="round" stroke-linejoin="round" stroke-width="1.15"/><path d="M466.81,71.44c-.11.18,2.11,1,2,1.17s-3.52,2.58-3.6,2.73c-.48.83,3.37.68,2.82,1.63-.26.44-8.12-4.18-8.34-3.79-.69,1.19,12.69,5.42,11.86,6.86-.38.65-16.48-9.27-16.89-8.55-.82,1.42,20.9,11.15,20.49,11.85-1.15,2-32.7-14.38-33.35-13.25-1.35,2.34,31,15.29,29.86,17.27-1,1.72-31-19.53-32.26-17.34-.8,1.39,38.38,20.43,37.61,21.76-1.14,2-33.37-18.08-34.63-15.9-.65,1.13,10.27,3.87,9.37,5.42-.39.67-19.35-8.53-20-7.41-.77,1.33,8.06,2.72,7.22,4.18-.36.63-18.17-6.75-18.7-5.83-.79,1.37,14.11,7.06,13.64,7.89-.15.25-8.75-2.16-9-1.81-.42.73,1.62-.11,1.17.68-.32.55-15.05-5.34-15.45-4.65-.49.85,15.93,7.9,15.36,8.88-.86,1.49-27.67-12.2-28.38-11S418.83,82.74,418.08,84c-.88,1.52-25-14.31-25.66-13.13-.53.93,12,4.91,11.16,6.45-.3.52-12.13-5.86-12.6-5s20.6,9.83,19.69,11.39c-.43.74-11.43-6.25-11.83-5.56-.81,1.4,4.33.49,3.46,2-.5.86-13.39-5.75-13.73-5.16-.51.89,4.39,1.55,4,2.29-.27.47-12.47-2.4-12.85-1.74-.73,1.26,5,1.25,4.31,2.49-.3.52-8.28-2.48-8.51-2.08-.75,1.29,2.57-.66,1.64.95-.34.58-18.19-5.65-18.66-4.84-.67,1.16,13.2,6.5,12.71,7.35-.21.37-13.27-4-13.72-3.18-.58,1,14.61,7,14,8.1-.74,1.28-19.74-10.05-20.32-9.05s6.84,2.1,6,3.49c-.28.48-13.53-6.39-13.84-5.85-.45.78,6.33,2.73,5.93,3.43-.31.54-10.07-5.43-10.26-5.11-.85,1.47,10.54,4.49,9.85,5.7-.37.65-11.6-2.53-12-1.86-.78,1.36,3.6.81,3.05,1.76-.23.41-12-4.89-12.18-4.52-.9,1.57,7.34,2.94,6.78,3.92-.15.25-6.18-2.15-6.28-2-.56,1,12.24,5.46,11.54,6.68-.27.48-7.94-4-8.19-3.57-.84,1.46,10.33,4.54,9.71,5.62-.78,1.36-25.69-12.65-26.35-11.5-.56,1,20.85,10.38,20.13,11.64s-28.94-13-30-11.18c-.44.76,15,7.2,14.36,8.31-.36.62-13.27-2.71-13.65-2.06-.55,1,8.13,3.1,7.44,4.3-.55,1-22.59-11-23.14-10s7.53,2.68,6.81,3.94c-.38.65-15.91-4.28-16.29-3.63-.9,1.56,7,2.33,6.26,3.62-.11.2-3.53.8-3.63,1-.8,1.39,5.48,1.75,4.87,2.81-.41.72-11.83-5.47-12.07-5.06-.85,1.48,12.81,5.29,11.9,6.88-.49.86-24.35-13.16-25-12.08s19.62,9.23,18.71,10.82-24.27-11.7-25.09-10.28c-.58,1,15,7.6,14.52,8.4s-22.33-7.73-22.88-6.77c-.43.75,18.29,9.12,17.66,10.21-.49.84-25.29-9.61-25.71-8.89s19.35,9.38,18.57,10.74-25.62-11.35-26.26-10.23c-.82,1.43,18.09,9.23,17.55,10.15s-24-10.75-24.37-10.06c-.6,1,5.65,1.58,4.92,2.85-.5.86-14.15-5.05-14.65-4.19-.84,1.45,14,6.8,13.42,7.76s-19.16-7.67-19.53-7c-.51.89,16.85,8.12,16.14,9.34-.81,1.41-22.23-13.68-23.13-12.12-.42.72,20.69,10.8,20.18,11.67-.6,1-15-8.73-15.43-8-.59,1,13.91,6.7,13.33,7.71-.69,1.21-20.47-13.15-21.09-12.08s13.64,6.57,13.07,7.56c0,.07-1.38.25-1.4.29-.68,1.17,4.9.94,4.08,2.36-.28.48-8.28-5.24-8.61-4.67-.82,1.42,8.66,4,8.24,4.77s-16.74-6-17.36-5c-.52.91,10.11,4.39,9.48,5.48-.73,1.26-18.75-10.47-19.43-9.29-.89,1.54,17.36,8.27,16.6,9.6C204,82,190.06,74,189.63,74.79c-.69,1.2,17.23,8,16.38,9.48-.55.95-27.25-10.94-27.91-9.79-.49.86,9.35,4.21,8.83,5.11-.22.39-12.07-4.78-12.41-4.19-.52.9,4.36.41,3.45,2-.58,1-19.94-6.23-20.41-5.4s10.59,4.19,9.76,5.64c-.64,1.12-17.81-5.15-18.13-4.58-.7,1.22,16.64,7.87,15.89,9.19-.46.8-17-9.29-17.38-8.67-.8,1.38,7.78,2.79,7,4.07-.11.18-4.72-1.5-4.87-1.23-.45.78,1.38-1.19.52.3-.11.19-3,.88-3,1-.62,1.08,8,3.14,7.35,4.25-.42.72-18.25-9.14-18.61-8.52-.56,1,16.55,7.89,15.83,9.15-.34.59-13.54-5.59-14-4.87s6.3,2.57,5.83,3.37c-.57,1-18.38-10.72-18.9-9.81s19.81,9.55,19,11-23.4-10.62-24-9.62c-.42.72,7.18,2.56,6.49,3.75-.24.42-6.77-3.29-7-2.9-.91,1.59,7.19,2.11,6.3,3.65-.41.71-14.05-3.15-14.37-2.6-.45.78,10.33,4.44,9.66,5.59-.54.93-17.22-10.85-17.74-9.94-.68,1.17,11.33,5.24,10.76,6.22-.14.25-5.91,1.51-6.08,1.8-.55,1,8.68,3.74,8.13,4.7s-15.6-7.37-16-6.65,13.25,6,12.52,7.24c-.33.58-15.41-6.35-15.81-5.65-.91,1.57,8.38,2.7,7.45,4.31-.47.81-15.42-9.42-16-8.34-.51.89,4.6,1.5,4.1,2.37-.27.48-13.33-4.06-13.62-3.56-.41.71,11.27,4.81,10.53,6.09-.36.62-11.05-5-11.35-4.47-.9,1.55,11.5,4.6,10.61,6.14-.51.89-13.1-8.63-13.64-7.69S91.32,81,90.76,82,68.64,69.13,67.9,70.42,92.12,83,91.5,84.07,67.86,73.42,67.39,74.24c-.64,1.12,11.2,5.11,10.61,6.14-.2.35-11.46-2-11.84-1.32-.82,1.43,9,3.65,8.33,4.82s-21.85-10-22.32-9.19,17,8.1,16.23,9.39c-.36.63-14.8-7.28-15.07-6.83-.69,1.2,6,2.1,5.41,3.13-.28.48-14.81-5.33-15.21-4.63s13.33,6.95,13,7.52-13.49-2-13.89-1.36,10.82,5.3,10.41,6c-.28.49-11.55-6.59-11.81-6.14-.49.86,8.11,3.95,7.79,4.51-.14.24-2.63,3.24-2.71,3.37-.23.4,8.44,3.76,8,4.6-.11.19-6.24-1.9-6.4-1.62-.4.69,6.16,2.48,5.7,3.29-.13.23-6-2.62-6.1-2.44-.51.89,1.21-.14.85.49-.1.18,1,6.23.8,6.5-.44.76,5.68,2.27,5.24,3-.09.15-3,.08-3.1.25-.33.58.47-.34.21.12-.09.15-3.92,3.1-4,3.24-.31.53,1.19-.09.86.49-.12.2-4.08,0-4.18.15-.51.89,2,.06,1.54.89-.08.13-4.27-1.75-4.42-1.5-.43.75,4.94,1.71,4.45,2.57-.16.29,2,6.53,1.76,6.92-.47.81,1.28-.23.86.5-.26.44-7.47,1.4-7.59,1.61-.53.92,9.51,4.35,9,5.21-.22.39-9-1.7-9.18-1.39-.28.48,2.31.63,2,1.16-.15.26,5.08,4.28,4.9,4.6-.29.51,1.29-.23.86.5-.22.37-6.45-2.15-6.66-1.78-.31.54,2,.59,1.76,1,0,.07-1.74,0-1.78.07-.51.88,8.47,4.22,8.18,4.73-.06.1-2.29-1.42-2.36-1.3-.26.45,1.39-.42.86.5-.13.23-.79,3.83-.86,4-.53.93,1.12.05.87.5,0,0-.85,0-.87,0-.49.85,1.34-.32.87.5-.11.19-2.37,2.81-2.49,3-.37.64,1.49-.05,1.1.63-.06.11.62,2.73.53,2.89-.26.46,1.16,0,.87.5-.06.1-.45,3.53-.53,3.65-.47.81,2.23.7,2,1.14-.06.1-2.26.37-2.32.46-.4.7,1.31-.26.87.5-.05.09-.82,2.68-.87,2.76-.34.6,1.21-.08.87.5-.24.42-7-.11-7.07.08-.26.45.72-.6.28.16-.12.21,4.38,6.14,4.22,6.41-.44.77,2.62.8,2.31,1.34s-7-3.62-7.23-3.26c-.32.56,6.22,2.77,5.86,3.39,0,.05-.8.87-.83.91-.5.86,2.22.58,1.92,1.11,0,.07-1.45.17-1.49.24-.37.65,4.38,1.94,4.12,2.39-.14.25-8.69-2.89-8.9-2.51s4.73,1.59,4.23,2.45c-.09.15-2.46.83-2.54,1-.53.92,11.17,5.26,10.65,6.16-.19.33-6.22-1.3-6.42-1-.31.54,1.16,0,.88.51-.1.18-.73,5.27-.88,5.53-.38.67,1.25-.13.88.51-.17.3-.8,4.84-.88,5-.44.77,1.27-.16.88.51-.06.1-.78,3.31-.88,3.49-.29.5,1.39-.37.88.51-.13.22-3.68,3.19-3.8,3.4-.38.66,2.25.05,1.71,1-.12.2-.7,5.72-.85,6-.26.45,1.23,0,.93.54-.11.19-3.94-.24-4.07,0-.49.85,12,6,11.61,6.71-.11.18-6.28-2.46-6.41-2.25-.52.9,1.17,0,.89.52,0,.08-.85,1.88-.89,1.94-.5.87,1.43-.42.89.52-.12.22-.74,5.82-.89,6.07-.53.93,1.25-.1.89.52,0,.05-.87-.4-.89-.36-.26.46,1.33-.24.89.52-.13.23,1,6,.77,6.35s7.18,3,6.66,3.86c-.29.51-14.74-6.3-15-5.81-.42.73.71-.32.4.23s8.9,6.58,8.57,7.15,6,2.43,5.57,3.22c-.56,1-14.56-7.43-15.1-6.49-.35.61,10.83,5.15,10.35,6-.1.17-3.39,4.17-3.56,4.46-.32.56,8.82,4.55,8.58,5s-6-3.12-6.18-2.73c-.36.62,5.62,2.16,5.15,3-.15.27-6.93,1.78-7.09,2.06-.47.82,1.18,0,.9.52-.14.24-2.72,3.56-2.87,3.81-.48.83,1.49-.25,1,.58-.2.35,7.31,5.87,7.1,6.23-.36.62.75-.38.4.23-.19.33-6.42-.33-6.55-.11-.39.67,1.34-.23.91.52-.08.15,2.25,1.68,2.15,1.85-.39.68,3.84,1,3.31,1.91-.09.16-3,3.53-3.11,3.74-.28.48.51-.4.21.12-.17.29-8.25-3.16-8.46-2.79-.46.8,6,2.35,5.5,3.18-.1.18-.4,3.76-.51,4-.46.8,1.4-.32.91.53-.16.28,1.45,6.93,1.22,7.33s2.67,1,2.42,1.4c-.11.18-4.44-.06-4.56.15-.32.56,1.39-.3.92.53-.15.26-5.63-3.43-5.82-3.09-.37.64,1.55.28,1.28.74-.12.21-3.19-1.87-3.31-1.67-.49.84,13.92,7.18,13.54,7.83-.15.27-6.65-2.84-6.79-2.6-.36.63,4.29,1.45,3.84,2.22-.07.13-3.59,2.27-3.66,2.4-.33.57,1.29-.11.92.53,0,0-.84,1-.88,1.07-.32.56,6.33,3,6,3.49-.1.17-5.87-1.95-6.08-1.59-.36.63,1.24,0,.92.53l-2.62,4.5c-.33.56,1.94.54,1.69,1-.12.2.11,3.33,0,3.49-.54.94,1.37-.24.92.53-.1.17-.77,4.56-.92,4.83-.28.48,1.35-.2.92.53-.12.21-2.7,4.11-2.85,4.38-.33.57,4.76,2,4.45,2.57-.15.27-8.65-3.35-8.86-3-.35.61,2.93.88,2.58,1.49-.13.23,3.93,3.38,3.76,3.68-.35.61,1.44-.36.93.54-.14.24,3.67,7.38,3.54,7.61-1.09,1.9,21,10,20.05,11.6-.34.59-16.86-7.58-17.37-6.7-.61,1.06,17.81,8,16.84,9.74-.52.9-16.79-4.82-17.1-4.28-.42.73,7.29,2.77,6.67,3.86-.38.66-19.86-8-20.34-7.16s8,3.43,7.45,4.31c-.15.26-7.91-.89-8.14-.48s8.4,4.49,8.24,4.77-8-2.18-8.24-1.78c0,0,3.09,1.76,3.07,1.78" fill="none" stroke="#999" stroke-linecap="round" stroke-linejoin="round" stroke-width="1.15"/><path d="M497.4,59.53c-.28.49,4,.92,3.41,2-.13.22-4.49,3.4-4.59,3.58-.24.42.88-.06.64.37s6.51,4.89,6.35,5.17c-.38.67,3,1,2.67,1.54s-11.71-5.26-12.15-4.5c-.27.46,13.31,6.75,12.9,7.46-.12.21-.8,3.4-.86,3.5-.25.43,2.21.37,1.82,1.05S493.53,75.11,493,76c-.3.52,1.34,0,1,.58-.25.43,6.23,8.08,5.93,8.61-.45.79,1.24-.2.85.49-.18.31-.73,5-.85,5.2-.28.49,1.37-.42.85.49-.14.24-.69,5.65-.85,5.93-.43.74,1.32-.33.85.49-.2.35-.75,5.94-.85,6.11-.25.43,1.37-.42.85.49-.2.34-7-.57-7.21-.2-.42.73,11.8,5.88,11.39,6.59-.12.22-4.87,2-5,2.25-.26.46,1.12,0,.85.49-.12.2-4.77,1.36-4.88,1.54-.32.56,6,2.54,5.59,3.24-.12.21-3.89-2.49-4-2.21-.33.58,11.09,5.34,10.63,6.15-.27.46-7.88-3.95-8.15-3.48s1.08.08.85.49c-.08.14-.74,5.14-.85,5.33-.47.81,1.24-.2.85.49-.05.09,1.29,2.53,1.23,2.64-.28.49,5.24,2.4,5,2.87s-6.85.67-7,1c-.45.78,1.13,0,.85.49-.11.19-.76,3.75-.85,3.9-.28.49,1.09.06.85.49-.11.19-3.58,2.52-3.65,2.64-.25.43,1.72-.24,1.18.68,0,.07,1.7,1.83,1.62,2-.27.47,1.36-.41.85.49-.15.26-.75,4.15-.85,4.31-.24.42,1.1,0,.85.49-.06.11,1.85,1.2,1.82,1.26-.49.84,1.2,0,.91.52-.2.34-8.4-2.1-8.59-1.78s3.5,1.06,3.08,1.78c-.15.27-1.59,4.73-1.74,5-.42.73,4.16,1.3,3.68,2.13-.25.44,2.88,7.53,2.68,7.87s1.44.13,1.13.66c-.15.25-5.57-.74-5.72-.49-.48.84,1-.31.63.36-.21.36,1.39,6.79,1.26,7-.36.63,1.16-.06.85.49-.08.13,1,4.31.81,4.59-.33.58.44-.49.12.07-.07.13-1.72,2.63-1.77,2.73-.27.46,1.27-.25.85.49,0,0-.42-.06-.44,0-.39.68,4.62,2.07,4.36,2.52-.15.25-4.61.54-4.77.83-.36.63,1.19-.11.85.49-.14.24-4.22,2.91-4.31,3.08-.33.57,3.59,1,3.11,1.8-.07.12.41,2.32.36,2.42-.3.52,1.09.06.85.49,0,0-.82-.2-.85-.15-.34.59,1.36-.41.85.49-.12.21-.76,5.28-.85,5.43-.49.85,1.17-.07.85.49-.05.09-.76,2.56-.85,2.72-.4.69,1.37-.41.85.49-.13.22-7.07-1-7.24-.69-.47.81,11.7,6.12,11.42,6.6-.12.21-4.89-.52-5-.29-.44.77,1.36-.41.85.49-.13.23-.76,4.41-.85,4.56-.47.82,1.17-.08.85.49l-.85,1.51c-.31.54,1.13,0,.85.49-.14.24-.46,4-.59,4.22-.34.58,5.41,2.42,5.1,3s-7-1.23-7.18-.94c-.35.61,7.76,3.37,7.28,4.21-.14.25-5.82,1.63-6,1.86-.39.68,2.38.71,2.09,1.21-.15.27-5.21,2.09-5.35,2.34-.41.71,5.95,2.26,5.44,3.15-.16.27-6.89-1.48-7.09-1.13s9.75,5,9.45,5.47c-.15.26-3.86,3.1-4,3.42s1.18-.09.85.49c-.11.19-5.19,3.34-5.31,3.54-.45.78,2.41.64,2.08,1.21-.13.22,2.47,3.37,2.38,3.52-.33.57,1.16-.05.85.49-.16.28-5.67-3.08-5.86-2.76-.39.67,12.5,6.26,12.08,7-.24.42-7.74,1.29-8,1.74s4.79,1.58,4.27,2.47c-.12.2-3.24-.42-3.35-.24-.3.51,1.27-.24.85.49-.12.21-.75,5.58-.85,5.75-.41.7,1.22-.17.85.49-.18.31-3.53,4.33-3.66,4.55-.31.53,9.24,4.45,8.85,5.12-.14.24-5.91.91-6,1.13-.49.85,1.28-.26.85.49-.18.32-.65,5.66-.85,6-.45.79,1.37-.41.85.49l-.85,1.51c-.32.55,1.2-.13.85.49-.16.28-7.21-.68-7.46-.25-.35.6,11.25,5.83,11,6.34-.12.2-4.28-.17-4.35,0-.26.45,1.19-.11.85.49,0,0-.82,0-.85.07-.31.53,1.21-.14.85.49-.09.15-.73,5.06-.85,5.26-.53.91,1.38-.43.85.49,0,0-.83,0-.86,0-.45.79,1.56.35,1.32.76-.09.16,3.19,4.38,3,4.65-.35.61,2.77.46,2.28,1.32-.13.22-4.78-.53-4.89-.33-.42.73,2.65.76,2.31,1.34-.09.15-4,.2-4,.35-.52.9,1.37-.41.85.49-.06.1-.81,1.58-.85,1.64-.53.91,1.27-.25.85.49-.1.17-.74,2.94-.85,3.12-.44.77,1.12,0,.85.49-.12.2-.77,3.47-.85,3.6-.3.53,1.38-.44.85.49-.08.14-.73,3.82-.85,4-.38.66,1.38-.44.85.49,0,.09-.78,2.76-.85,2.87-.5.87,1.09.06.85.49-.13.23-.77,3.61-.85,3.74-.29.5,1.27-.24.85.49l-.85,1.33c-.3.53,1.12,0,.85.49-.16.27-.68,5-.85,5.26-.5.86,1.24-.19.85.49-.13.22-.76,4.42-.85,4.57-.5.86,1.32-.34.85.49-.14.24,3.63,4,3.47,4.25-.31.53,1.41-.4.88.51-.16.28-7.31-2.51-7.5-2.18s2.7.61,2.29,1.32c-.11.2.09,4.77,0,4.9-.51.89,1.36-.41.85.49,0,.06-.83.58-.85.61-.32.56,1.12,0,.85.49-.06.1-3,.81-3.1,1-.32.56,9.32,4.22,8.81,5.1-.19.34-3.52,4.23-3.66,4.46-.43.74.33-.53,0,0-.07.13-2.86-.89-2.92-.8-.27.47,1.38-.44.85.49-.12.21-.71,4.1-.85,4.33-.53.91,1.37-.43.85.49-.22.39-7.37-.33-7.61.09-.41.72,1.8.18,1.43.83-.17.29,1.1,6,.92,6.26-.51.89,11.56,5.73,11.15,6.45-.21.36-10.66-1.44-10.85-1.12-.45.79,3.75,1.62,3.51,2-.1.18.71,3.42.61,3.59-.32.55,1.31-.32.85.49-.09.15-.74,5.41-.84,5.58-.24.42,1.23-.45.73.42-.06.11-2.25.45-2.32.57-.4.69,5.34,2.25,5,2.88-.19.32-7.45,1.45-7.59,1.68-.46.8,4.12,1.61,3.79,2.19-.2.35-7.6-2-7.81-1.64s14.26,7.59,14,8.08c-.39.67-14.92-6.74-15.28-6.11-.46.8,14.56,7.4,14.12,8.17-.57,1-15.51-7.14-16-6.33-.35.61,14.76,7.76,14.42,8.34s-13.4-2.38-13.61-2c-.47.82,2.77.54,2.31,1.33-.37.65-10.21-4.55-10.52-4-.47.81,15.88,8.33,15.51,9-.63,1.09-21.81-10.77-22.64-9.33-.43.74,10.07,4.69,9.58,5.54s-15.68-3.52-16-2.92c-.63,1.09,12.46,5.22,11.6,6.71-.43.74-11.93-7.24-12.3-6.61s12.57,5.25,11.7,6.77c-.27.47-6.92-3.82-7.1-3.51-.72,1.25,6.45,2,5.7,3.3-.29.5-14.65-8.83-15-8.19-.81,1.41,9.51,4.5,9.08,5.25s-12.14-3.72-12.43-3.22c-.81,1.4,15.43,7,14.58,8.44-.51.89-20-10.06-20.34-9.45-.93,1.61,12.51,5.26,11.66,6.74-.24.42-6.28-3.16-6.45-2.88-.87,1.5,13.68,6,12.84,7.43-.51.89-22.76-12.9-23.64-11.37-.59,1,18.88,9.88,18.43,10.66-1,1.79-28.09-12.63-28.73-11.52s11.07,4.94,10.44,6c-.38.66-11.36-4.28-11.63-3.81-.46.8,9.75,3.63,8.88,5.14-.33.58-15.6-4.7-16-3.94-.81,1.4,12.29,5.18,11.46,6.63-.27.46-15-6.56-15.6-5.55s13.29,5.94,12.53,7.25-20.2-11-21-9.71c-.58,1,15.34,7.74,14.85,8.59-.69,1.2-26.12-13.67-26.57-12.89s18.7,8.82,17.83,10.32c-.33.58-18.1-7.41-18.72-6.34s6.79,2.16,6,3.49c-.26.45-14.15-3.46-14.41-3-.44.76,17,8.43,16.36,9.46s-25-10.69-25.72-9.47,17.24,9,16.8,9.72c-.91,1.57-23.57-11.68-24-11s13.65,6.88,13.21,7.64c-.56,1-18.51-6.2-19.12-5.15-.52.9,12.92,6.53,12.51,7.24-.63,1.09-22.55-12-23.31-10.69-.49.85,10.57,5,10.11,5.85s-18.37-6.69-18.84-5.88c-.68,1.18,20.15,10.06,19.46,11.26s-21.32-9.58-22.09-8.23c-.59,1,2.09.12,1.62.94-.33.56-18.41-5.35-18.85-4.58-.69,1.19,12,5.11,11.18,6.47-.25.43-6.81-4.35-7-4-.82,1.42,19.12,9,18.21,10.53s-24.7-14.88-25.54-13.41,12.87,5.49,12,7c-.28.48-8.74-1.34-9-1-.44.76,4.26.7,3.5,2-.33.57-11.07-3.19-11.26-2.86-.56,1,5.65,2.17,5.18,3-.58,1-20.1-9-20.78-7.79-.45.77,8.54,3.34,7.85,4.54-.44.76-17.1-6.14-17.45-5.54-.65,1.13,24,12.7,23.49,13.59-.76,1.32-33.54-14.2-34.16-13.13s10.5,4.75,9.92,5.74c-.31.54-17-6.77-17.3-6.27-.71,1.24,14.34,6.22,13.44,7.77-.25.43-8.06-2.66-8.25-2.33-.81,1.4,14.36,7.16,13.86,8s-20.82-11.92-21.22-11.22c-.66,1.14,20.31,9.66,19.41,11.23-.49.85-20.47-11.72-20.91-11-.6,1,9.66,3.95,8.95,5.18-.19.34-10.85-.68-11.07-.3-.45.79,7.31,2.35,6.5,3.76-.3.53-14.07-5.51-14.33-5.05-.83,1.45,8.3,3.38,7.68,4.44-.44.77-11.83-6-12.11-5.5-.77,1.35,2.79.68,2.38,1.38-.21.37-9-3.32-9.27-2.91-.62,1.07,11.78,5.24,11.1,6.42-.27.47-13.9-5.9-14.31-5.19-.51.88,3.87.79,3.24,1.87-.14.24-7.18-2.24-7.3-2-.84,1.46,2.91-.44,2,1.15-.41.71-11.28-4.06-11.52-3.64-.81,1.41,18.11,8.76,17.37,10s-20.44-12.74-20.89-12c-.63,1.09,19.68,9.65,18.93,11-.32.55-14.09-6-14.56-5.17-.81,1.4,8,3.48,7.52,4.35s-27.67-12.44-28.63-10.78c-.69,1.2,14.15,7,13.63,7.89-.23.39-10.81-5.19-11.1-4.68-.46.79,18.65,9,17.88,10.34-.47.82-15.4-7.26-15.87-6.45s6,1.51,5.13,3c-.47.82-15.43-9.35-15.83-8.65-.58,1,18.24,9.26,17.68,10.23-.68,1.18-26-10-26.52-9.14-.93,1.61,17.58,8.64,16.92,9.79-.51.89-22.31-12.86-23-11.58-.61,1.06,14.46,6.28,13.56,7.84-.26.46-11.27-6.35-11.62-5.74-.64,1.11,9.57,3.84,8.84,5.11-.41.71-14.78-3.59-15.27-2.75S208,414.07,207.48,415s-22.4-13-23.18-11.65c-.89,1.55,20.17,9.61,19.28,11.15-.65,1.13-19.36-8.94-19.8-8.18-.54.93,6,2.38,5.55,3.21-.31.54-12.43-5.33-12.79-4.72-.61,1.06,10.7,4.93,10.15,5.87s-20.87-8.33-21.45-7.32c-.67,1.17,13.9,6.55,13.26,7.67-.19.33-6.84-2.58-7-2.32-.9,1.57,2.21.34,1.8,1s-16.57-8.09-17-7.41c-.69,1.19,25.87,13.71,25.33,14.65-.69,1.2-25.26-12.12-25.81-11.17-.41.71,7.62,3.31,7.15,4.13-.08.13-3-.61-3.06-.52-.58,1,1.81-1,.91.53-.56,1-15.46-6-16-5.12-.93,1.61,7.09,2.69,6.48,3.75-.13.23-7.21.85-7.46,1.29-.47.81,8.74,3.62,8.12,4.69-.34.58-11.17-5.68-11.55-5s.79-.68.3.17c-.13.23-6.86.47-7,.75-.67,1.16,5.12,1.71,4.58,2.65-.84,1.46-24.63-11-25.36-9.76s23.29,12.26,22.77,13.17c-1,1.69-30.11-15.15-31.15-13.34-.76,1.32,12.36,5,11.44,6.62-.09.15-3.9-.92-4-.78-.73,1.27,9.5,4.2,8.94,5.17-.23.39-11.54-6.13-11.83-5.62-.41.71,2.49.16,1.94,1.12,0,0,0,.55,0,.58-.4.7.95-1,.27.16-.33.56-12.09-6.1-12.38-5.6-.49.86,16.13,7.61,15.39,8.9-.31.54-11.45-5.17-11.78-4.59-.57,1,5.46,1.17,4.6,2.66-.57,1-14.68-8.19-15.08-7.49-.61,1.07,20,10.55,19.53,11.3-.57,1-19.16-9.82-19.64-9-.77,1.34,11.5,4.55,10.59,6.13-.42.73-14-6.59-14.48-5.8-.82,1.43,10.65,4.42,9.9,5.72-.57,1-16.28-4.84-16.66-4.18-.9,1.57,6.21,1.95,5.5,3.18-.43.74-14.2-5-14.53-4.45-.5.86,5.91,1.79,5.21,3-.34.58-19.3-7.7-19.76-6.91s15.79,7.63,15.14,8.76c-.28.48-12.5-3.11-12.76-2.66-.82,1.43,11.22,4.4,10.31,6-.55,1-17-8.92-17.34-8.36-.59,1,8.2,2.92,7.41,4.29-.15.25-8-4.74-8.18-4.36-.42.73,6.49,2.09,5.77,3.34-.39.68-12-3.2-12.37-2.48s3.54,1,3.07,1.78c-.13.23-8-2.06-8.23-1.61-.46.8,3.9.62,3.19,1.85" fill="none" stroke="#999" stroke-linecap="round" stroke-linejoin="round" stroke-width="1.15"/><path d="M493.79,41.8c-.08.14.88.34.81.47s-4.89,1.75-5,1.93c-.58,1,7.62,2.86,7,4-.39.68-12.14-6.77-12.48-6.19-.83,1.45,17.4,7.73,16.39,9.48-.48.83-20.89-12.09-21.42-11.17-1,1.72,26,13.88,25.49,14.74C503.22,57.4,467,37.64,466.21,38.95c-1.57,2.73,36.91,18.27,35.58,20.58-1.17,2-36.49-23.23-38-20.65-.93,1.61,44.22,23.53,43.33,25.06-1.34,2.32-38.87-21.77-40.34-19.21-.65,1.13,10.27,3.87,9.37,5.42-.39.67-19.34-8.53-20-7.41-.77,1.33,8.06,2.72,7.22,4.18-.36.63-18.17-6.75-18.7-5.83-.79,1.37,14.11,7.06,13.63,7.89-.15.25-8.75-2.16-9-1.8-.42.73,1.62-.11,1.17.68-.32.55-15-5.34-15.44-4.65-.49.85,15.93,7.9,15.36,8.88-.86,1.49-27.67-12.19-28.37-11S443.21,51.6,442.46,52.9c-.88,1.52-25-14.31-25.66-13.13-.53.93,12,4.9,11.15,6.45-.3.51-12.13-5.86-12.6-5S435.95,51,435,52.57c-.43.74-11.43-6.25-11.83-5.56-.81,1.4,4.33.49,3.46,2-.5.86-13.39-5.75-13.73-5.16-.51.89,4.39,1.55,4,2.29-.27.47-12.46-2.4-12.84-1.74-.73,1.26,5,1.25,4.31,2.49-.3.52-8.27-2.48-8.5-2.08-.75,1.29,2.56-.66,1.64.95-.34.58-18.19-5.65-18.66-4.83-.67,1.16,13.19,6.5,12.7,7.35-.21.37-13.27-4-13.72-3.18-.58,1,14.61,7,14,8.1-.74,1.28-19.73-10.05-20.31-9s6.83,2.1,6,3.49c-.27.48-13.53-6.38-13.84-5.84-.45.78,6.32,2.73,5.92,3.43-.31.54-10.07-5.43-10.25-5.11-.85,1.47,10.53,4.49,9.84,5.69-.37.65-11.59-2.53-12-1.86-.78,1.36,3.6.8,3,1.76-.23.41-12-4.88-12.18-4.51-.9,1.57,7.34,2.94,6.77,3.92-.15.25-6.17-2.14-6.28-2-.56,1,12.24,5.46,11.54,6.67-.27.48-7.94-4-8.19-3.57-.84,1.46,10.33,4.54,9.71,5.62-.78,1.36-25.68-12.65-26.34-11.5-.56,1,20.84,10.38,20.12,11.64s-28.94-13-30-11.18c-.44.76,15,7.19,14.35,8.3-.36.62-13.27-2.71-13.64-2.05-.55,1,8.12,3.09,7.43,4.3-.55,1-22.58-11-23.13-10s7.52,2.68,6.8,3.93c-.38.65-15.91-4.28-16.28-3.63-.9,1.56,7,2.33,6.26,3.62-.11.2-3.52.8-3.62,1-.8,1.39,5.47,1.75,4.86,2.81-.41.72-11.82-5.47-12.06-5.05-.85,1.48,12.8,5.29,11.89,6.88-.49.86-24.34-13.15-25-12.08S307,48,306.06,49.63,281.8,37.93,281,39.35c-.58,1,15,7.6,14.51,8.39S273.17,40,272.62,41c-.43.75,18.28,9.11,17.65,10.21-.49.84-25.28-9.61-25.7-8.88S283.91,51.67,283.13,53s-25.61-11.34-26.25-10.23C256.05,44.23,274.95,52,274.42,53s-24-10.74-24.36-10.06c-.6,1,5.64,1.58,4.91,2.84-.5.86-14.14-5-14.64-4.19-.83,1.45,14,6.8,13.41,7.75s-19.15-7.66-19.52-7c-.51.89,16.83,8.11,16.13,9.33-.81,1.41-22.22-13.67-23.12-12.12-.42.72,20.67,10.8,20.17,11.67-.6,1-15-8.73-15.42-8-.59,1,13.9,6.69,13.32,7.7-.69,1.2-20.46-13.14-21.08-12.08s13.63,6.56,13.06,7.56c0,.07-1.37.25-1.39.29-.67,1.17,4.89.93,4.07,2.35-.27.48-8.27-5.23-8.6-4.66-.82,1.42,8.64,4,8.23,4.76s-16.73-6-17.35-5c-.52.91,10.1,4.38,9.47,5.48C231,50.92,213,39.19,212.28,40.38c-.89,1.54,17.35,8.26,16.58,9.59-.51.89-14.42-7.08-14.85-6.32-.69,1.2,17.22,8,16.37,9.47-.55.95-27.24-10.93-27.9-9.78-.49.86,9.34,4.21,8.82,5.1-.22.38-12.06-4.77-12.4-4.18-.52.9,4.35.41,3.44,2-.58,1-19.92-6.22-20.4-5.4s10.58,4.18,9.74,5.64c-.64,1.12-17.8-5.14-18.12-4.58-.7,1.22,16.63,7.86,15.87,9.18-.46.8-17-9.28-17.37-8.66-.79,1.38,7.76,2.78,7,4.06-.1.18-4.7-1.49-4.86-1.22-.45.78,1.36-1.2.5.29-.11.19-3,.89-3,1-.62,1.08,8,3.13,7.34,4.25-.42.72-18.24-9.14-18.6-8.51-.56,1,16.54,7.88,15.81,9.15-.34.59-13.53-5.58-13.94-4.86s6.28,2.56,5.82,3.37c-.57,1-18.37-10.71-18.89-9.81s19.79,9.54,19,11-23.38-10.61-24-9.61c-.42.72,7.16,2.55,6.47,3.74-.24.41-6.76-3.28-7-2.89-.91,1.59,7.17,2.1,6.29,3.64-.41.71-14-3.14-14.36-2.59-.45.77,10.31,4.43,9.65,5.58-.54.93-17.2-10.84-17.73-9.93-.67,1.17,11.31,5.23,10.74,6.21-.14.25-5.9,1.52-6.06,1.81-.55,1,8.67,3.73,8.11,4.69s-15.59-7.37-16-6.64,13.23,6,12.5,7.23c-.33.58-15.4-6.34-15.8-5.64-.91,1.57,8.37,2.69,7.44,4.3-.47.81-15.4-9.41-16-8.33-.51.89,4.59,1.49,4.09,2.36-.27.48-13.31-4-13.6-3.55-.41.71,11.25,4.8,10.52,6.08-.36.62-11-5-11.33-4.47-.9,1.55,11.48,4.59,10.59,6.13-.51.89-13.08-8.62-13.62-7.68s16.54,8.29,16,9.25S93,38,92.28,39.28s24.21,12.57,23.59,13.64-23.62-10.64-24.1-9.82c-.64,1.12,11.19,5.1,10.59,6.13-.22.38-12.36-2.59-12.78-1.86-.86,1.49,10,4.14,9.26,5.36C98,54.22,73.5,40.53,73,41.48s20.68,9.92,19.8,11.45c-.34.59-13.78-6.65-14-6.22-.89,1.55,2.68-.21,1.92,1.11-.42.73-21.91-9.92-22.52-8.86S81.46,51.13,80.89,52.12,49.29,38.25,48.31,39.95c-.58,1,21.54,10.71,20.78,12-.56,1-22.76-13.67-23.28-12.77-.89,1.54,18.65,9.44,18.07,10.45-.7,1.21-20.6-7.92-21-7.21s18.54,8.77,17.7,10.24c-.36.63-19.21-10.26-19.74-9.34-.69,1.2,16.25,7.53,15.44,8.93-.28.48-12.17-6.45-12.38-6.08-.88,1.53,5.25,1.6,4.63,2.68-.24.42-15.07-3.55-15.44-2.9-.65,1.12,12.34,5.63,11.69,6.76-.35.62-11.18-5.34-11.57-4.66s5.52,2.36,5.16,3c-.23.4-13.05-2.5-13.27-2.12-.31.54,1.37,0,1,.59-.17.3-5.88-1.19-6-.92-.47.82,1-.47.51.3-.07.12-3.82-1.46-4-1.23-.39.68,3.59,1,3.14,1.82-.17.3-7.07,1.26-7.31,1.67-.4.7,14.35,7.46,14,8.09-.51.88-14.9-3.17-15.14-2.76-.5.87,8.73,4,8.26,4.78-.22.38-8.74-1.53-8.91-1.24-.27.47,2,.48,1.73,1-.15.27,5.13,4.31,4.95,4.63-.29.5,1.23-.26.81.47-.22.37-6.43-2.14-6.64-1.77-.31.54,2,.58,1.74,1,0,.07-1.72,0-1.76.08-.51.88,8.46,4.21,8.16,4.72-.06.1-2.27-1.41-2.34-1.29-.26.45,1.37-.43.84.49-.13.23-.77,3.84-.84,4-.53.92,1.1,0,.84.49,0,0-.83,0-.84,0-.49.85,1.32-.33.84.49-.11.19-2.35,2.82-2.47,3-.37.64,1.47-.06,1.07.62-.06.11.65,2.74.55,2.91-.26.46,1.13,0,.85.49-.06.1-.43,3.54-.5,3.66-.47.81,2.2.69,2,1.13-.06.1-2.24.38-2.29.48-.4.69,1.28-.27.85.49-.05.09-.8,2.69-.85,2.78-.34.6,1.18-.09.85.49-.24.42-6.93-.1-7,.1-.26.45.69-.61.25.15-.12.21,4.41,6.15,4.25,6.43-.44.77,2.59.79,2.28,1.32s-7-3.6-7.2-3.25c-.32.56,6.19,2.76,5.83,3.37,0,.05-.77.89-.8.93-.5.86,2.19.57,1.89,1.09,0,.07-1.42.19-1.46.25-.37.64,4.35,1.93,4.09,2.37-.14.24-8.66-2.87-8.87-2.5s4.7,1.57,4.2,2.43c-.08.15-2.43.85-2.51,1-.53.91,11.14,5.24,10.62,6.14-.19.33-6.19-1.28-6.38-.95-.31.54,1.13,0,.85.49-.11.18-.69,5.29-.85,5.55-.38.67,1.21-.15.85.49-.17.3-.76,4.86-.85,5-.44.77,1.23-.18.85.49-.06.1-.74,3.33-.85,3.52-.29.5,1.35-.39.85.49-.13.22-3.64,3.21-3.76,3.43-.38.66,2.2,0,1.67,1-.12.2-.66,5.74-.81,6-.26.45,1.19,0,.88.51-.11.19-3.9-.22-4,0-.49.84,12,6,11.56,6.69-.11.18-6.24-2.44-6.36-2.22-.52.9,1.13,0,.85.49,0,.08-.81,1.9-.85,2-.5.86,1.38-.44.85.49-.12.22-.7,5.84-.85,6.1-.53.92,1.2-.12.85.49,0,0-.82-.37-.85-.33-.26.45,1.28-.27.85.49-.13.23,1,6,.82,6.37s7.12,2.94,6.61,3.83c-.29.5-14.69-6.27-15-5.78-.42.72.66-.35.35.2s9,6.61,8.62,7.18,6,2.4,5.52,3.19c-.56,1-14.51-7.39-15-6.46-.35.61,10.78,5.12,10.3,6-.1.17-3.34,4.2-3.51,4.49-.32.56,8.76,4.52,8.52,4.93s-5.9-3.08-6.12-2.7c-.35.62,5.57,2.14,5.1,2.95-.15.27-6.87,1.81-7,2.09-.47.82,1.12,0,.85.49-.14.24-2.67,3.59-2.81,3.84-.48.83,1.43-.28,1,.55-.2.35,7.37,5.9,7.16,6.27-.36.62.69-.41.34.2-.19.32-6.36-.3-6.49-.07-.39.67,1.28-.26.85.49-.09.15,2.31,1.72,2.21,1.88-.39.68,3.77,1,3.25,1.88-.09.16-2.93,3.57-3,3.78-.28.48.45-.44.15.08-.16.29-8.19-3.12-8.4-2.76-.46.8,5.92,2.31,5.44,3.15-.1.18-.34,3.8-.45,4-.46.8,1.33-.35.85.49-.16.29,1.52,7,1.29,7.37s2.6.93,2.36,1.36c-.1.18-4.37,0-4.49.19-.32.55,1.32-.34.85.49-.15.25-5.56-3.39-5.75-3-.37.64,1.48.24,1.21.7-.12.2-3.12-1.83-3.24-1.62-.48.84,13.85,7.14,13.47,7.79-.15.26-6.58-2.8-6.72-2.56-.36.63,4.22,1.41,3.77,2.18-.07.13-3.52,2.32-3.59,2.44-.33.57,1.21-.15.85.49,0,0-.77,1.06-.8,1.11-.32.56,6.26,2.94,6,3.45-.09.16-5.8-1.9-6-1.54-.36.63,1.17-.07.85.49l-2.55,4.54c-.32.56,1.86.5,1.61.93-.12.2.18,3.37.09,3.53-.54.93,1.29-.28.85.49-.1.17-.69,4.61-.85,4.88-.28.48,1.27-.24.85.49-.12.21-2.62,4.15-2.78,4.42-.33.57,4.68,2,4.37,2.53-.15.26-8.57-3.3-8.78-2.93-.35.61,2.85.83,2.5,1.44-.14.24,4,3.42,3.84,3.73-.35.61,1.36-.4.85.49-.09.15-.77,4.93-.85,5.07-.4.69,1.18-.1.85.49-.05.09-.76,2.72-.85,2.86-.27.46,1.27-.24.85.49-.15.27-.75,5-.85,5.12-.27.46,1.24-.2.85.49-.13.23-7.47-.11-7.64.19-.51.89,8.25,3.58,7.73,4.47-.07.12-.83,3.5-.94,3.69-.43.74,1.21-.15.85.49-.1.17-.73,3.8-.85,4-.52.89,1.11,0,.85.49-.06.11-.81,1.8-.85,1.85-.27.47,1.37-.42.85.49-.09.15-.67,4.85-.85,5.16s1.25-.22.85.49c-.18.32-.69,5.1-.85,5.37-.5.86,1.16,0,.85.49-.11.2-.73,4.21-.85,4.4-.35.6,1.33-.35.85.49-.07.12-.76,2.26-.85,2.41-.42.72,1.35-.38.85.49,0,.07-2.14-1.1-2.2-1-.41.72.62-.56.23.13-.08.15,1.21,2.82,1.13,3-.38.65,1.31-.31.85.49,0,.05-.82-.43-.85-.38-.33.57,1.35-.39.85.49-.11.18-1.91,3.94-2,4.05-.29.5,6,2.35,5.55,3.21-.12.22-4.32,3-4.42,3.13-.3.51,1.21-.14.85.49-.24.42-6.78-2.51-7-2.14-.35.61,5.36,2.05,4.91,2.84-.2.34,1.35,6.06,1.24,6.25-.5.86,1.25-.22.85.49-.11.2-5.53.19-5.64.38-.23.4,4.53,1.94,4.24,2.45-.07.13,1,2.43.92,2.59-.4.7,4.55,2,4.29,2.48s-4.54,3.58-4.66,3.78c-.4.69,1.2-.13.85.49-.09.15-.25,4.95-.41,5.22-.46.79,5.95,2.63,5.6,3.24s-12.22-1.37-12.52-.84,7.9,3.61,7.49,4.33c-.1.17-2.85,2.93-3,3.16-.51.88,8,4.06,7.73,4.47S13,343.73,12.77,344.07c-.53.91,3.38,1.11,3,1.74-.16.29,1.65,5.77,1.51,6-.5.87,1.19-.11.85.49-.18.32-.64,5.69-.85,6-.41.71,1.24-.2.85.49-.06.1-.79,1.69-.85,1.79-.25.44,1.24-.18.85.49,0,0-.83-.22-.85-.18-.54.93,1.18-.09.85.49-.09.16-.78,3.53-.85,3.64-.29.5,1.13,0,.85.49s-8-3.47-8.18-3.18,4.44,1.61,4,2.33c-.17.29,4.53,7.68,4.36,8-.5.88,3.4,1,3,1.71-.09.16-3.95,1.08-4,1.2-.5.87,1.28-.27.85.49-.15.27-5,1.82-5.18,2.16-.31.54.54-.48.2.12-.15.27,4.22,2.6,4.13,2.75-.27.47,1.21-.14.85.49-.17.3-.73,5.31-.85,5.52-.32.56,1.09.07.85.49-.11.18-.76,4.33-.85,4.48-.54.93,1.78.28,1.46.84,0,.06-1.39,1.64-1.46,1.76-.36.62,5.87,2.17,5.34,3.09-.3.51-8.48.77-8.67,1.1C13.35,400,35,409,34.11,410.51c-.27.47-10.57-4.88-10.9-4.3-.66,1.15,13.13,5.34,12.15,7-.26.45-11.78-4.43-12-4-.7,1.22,5.65,2.23,5.21,3-.17.3-9-1.32-9.18-1s6.43,3.54,6.35,3.67" fill="none" stroke="#999" stroke-linecap="round" stroke-linejoin="round" stroke-width="1.15"/><path d="M281.27,375s3.09,1.76,3.08,1.78c-.34.58-11.18-2.17-11.4-1.78s11.69,6.17,11.44,6.61-7.37-3.7-7.57-3.35c-.35.6,1.76,0,1.34.78-.14.23-6.22-2.73-6.37-2.47-.44.77,10,5.26,9.76,5.65-.76,1.32-22.19-7.79-22.62-7-.92,1.6,19.77,9.63,19,11-.65,1.13-20.56-12.49-21.39-11.06-.51.89,25,13.34,24.53,14.19-.69,1.2-20.78-9.66-21.55-8.33-.66,1.15,10.61,4,9.7,5.61-.39.68-19.66-8.74-20.32-7.6-.78,1.35,8.42,2.9,7.57,4.38-.37.63-18.24-6.79-18.77-5.87-.79,1.37,14.2,7.11,13.73,7.94-.17.29-10-3-10.23-2.54s5.19,2.22,4.85,2.81c-.1.17-4.54,1.38-4.66,1.59-.21.37,2.45.85,2.21,1.28s-9.6-.67-9.83-.28c0,0,3.09,1.75,3.07,1.78" fill="none" stroke="#999" stroke-linecap="round" stroke-linejoin="round" stroke-width="1.15"/><path d="M221.2,410.26s3.38,1.92,3.37,1.95c-.47.82-15.46-4.87-15.78-4.31s15.2,8,14.85,8.59-9.15-4.84-9.4-4.4c-.4.69,3.45.88,3,1.71-.13.23-6-2.57-6.12-2.32-.43.74,9.48,5,9.27,5.36-.41.72-12.63-1.81-12.86-1.41-.49.85,8.43,3.92,8,4.64-.25.43-8.09-4.09-8.4-3.54s13.75,7.36,13.49,7.81c-.45.78-14-5.11-14.48-4.25-.35.61,15.32,7.76,14.85,8.59-.3.52-15.16-5.77-15.66-4.9-.41.71,15.29,7.81,14.85,8.59-.22.38-11.48-2.4-11.8-1.84-.42.73,3.16,1.24,2.9,1.68-.12.21-7.4-1.31-7.58-1s15.09,8.17,14.85,8.59-7.83-.7-8-.36,4.93,2.15,4.63,2.68-9.08-.31-9.3.07c-.41.71,10.06,4.89,9.66,5.59s-12-5.95-12.3-5.4.9-.58.42.25c-.08.13,1.69,2.94,1.57,3.15-.25.44,9.44,4.34,9,5.18s-12.93-7.25-13.38-6.46,15.31,7.78,14.85,8.59c-.56,1-15-6.79-15.39-6.12-.27.47,15.08,8.19,14.85,8.59-.34.59-15.48-4.37-16-3.54-.39.67,15.23,7.92,14.85,8.59-.57,1-15-6.82-15.4-6.07s15.34,7.73,14.85,8.59c-.22.37-12-1.66-12.27-1.14s2.23.69,2,1.14c-.1.18-6.42.54-6.64.92s9,4.8,8.8,5.09c-.32.56-9-3.64-9.21-3.2,0,0,3.38,1.89,3.35,1.94" fill="none" stroke="#999" stroke-linecap="round" stroke-linejoin="round" stroke-width="1.15"/><path d="M306.25,407.64s3,1.72,3,1.74c-.26.46-8.84-.71-9-.4s10.47,5.55,10.25,5.93c-.36.62-11.23-6.19-11.54-5.64s12.17,6.2,11.81,6.83c-.23.4-10.35-5.36-10.6-4.91-.39.67,8.26,4.33,8.07,4.67-.45.77-13.53-2.37-13.78-1.94-.63,1.09,12.19,5.82,11.66,6.74-.34.59-11-6.06-11.45-5.3s17.47,9.33,17.13,9.91c-.18.31-5.75.35-5.95.69-.45.78,2.9.24,2.28,1.32-.09.15-4.51,1.2-4.66,1.46-.53.92.71-.93.13.07-.08.14-1.59,3.8-1.71,4-.55.95,6.87,3.21,6.54,3.78,0,.08-2.13,2-2.2,2.1-.29.51,3.81,1.48,3.5,2-.07.13-2.15,2.83-2.24,3-.34.59,8.66,4.1,8.26,4.78-.3.51-10.24-1-10.48-.62-.53.92,13.81,6.79,13.29,7.69s-14.77-7.74-15.16-7.05,4.68,1.28,4.06,2.35c0,.07-1,1.51-1.06,1.63-.32.56,13.22,6.2,12.6,7.29-.32.55-8.65-4.41-8.95-3.89-.56,1,4.1,1,3.5,2-.1.18-2.72,1-2.79,1.17-.35.61,3.79,1.51,3.5,2-.2.35-9.26-.31-9.54.17s13.06,6.82,12.74,7.37c-.44.76-11.68-4.68-12-4.11-.19.34,8.73,4.49,8.49,4.91-.13.23-7.37-1-7.55-.69,0,0,3,1.71,3,1.73" fill="none" stroke="#999" stroke-linecap="round" stroke-linejoin="round" stroke-width="1.15"/><path d="M346.84,460.89s3.09,1.76,3.08,1.78c-.34.58-11.18-2.17-11.4-1.78s11.69,6.17,11.44,6.61-7.37-3.7-7.57-3.35c-.35.6,1.76,0,1.34.78-.14.23-6.22-2.73-6.37-2.47-.44.77,10,5.26,9.76,5.65-.76,1.32-22.19-7.79-22.62-7-.92,1.6,19.77,9.63,19,11-.65,1.13-20.57-12.49-21.39-11.06-.51.89,25,13.33,24.52,14.19-.69,1.2-20.78-9.65-21.54-8.33-.66,1.15,10.58,4,9.68,5.6-.39.68-19.64-8.73-20.3-7.59-.78,1.35,8.38,2.88,7.53,4.36-.37.64-18.47-6.95-19-6-.8,1.39,14.43,7.24,14,8.07-.15.26-9.06-2.36-9.27-2-.43.74,1.95.07,1.49.86-.32.56-15.36-5.54-15.77-4.84-.5.86,16.26,8.07,15.69,9.07-.87,1.5-28-12.4-28.7-11.16s21.48,10.67,20.72,12c-.89,1.54-25.31-14.52-26-13.32-.54.94,12.4,5.08,11.49,6.65-.31.53-12.46-6.08-12.94-5.24s20.95,10,20,11.59c-.44.76-11.76-6.47-12.17-5.75-.82,1.42,4.69.66,3.8,2.2-.51.88-13.72-6-14.07-5.36-.52.9,4.74,1.74,4.31,2.49-.28.49-12.8-2.62-13.19-1.94-.74,1.28,5.39,1.43,4.66,2.7-.32.55-8.62-2.7-8.86-2.29-.76,1.31,2.94-.48,2,1.15-.34.6-18.54-5.87-19-5-.68,1.18,13.57,6.7,13.07,7.56-.22.38-13.62-4.2-14.09-3.39-.59,1,15,7.24,14.37,8.31-.75,1.31-20.1-10.29-20.69-9.27s7.23,2.29,6.41,3.71c-.28.49-13.9-6.62-14.22-6.06-.46.8,6.71,2.94,6.3,3.65-.32.56-10.44-5.66-10.64-5.33-.86,1.49,10.93,4.69,10.22,5.91-.39.67-12-2.77-12.36-2.08-.8,1.39,4,1,3.44,2-.24.42-12.35-5.12-12.57-4.74-.92,1.59,7.74,3.15,7.17,4.15-.16.27-6.56-2.38-6.67-2.19-.57,1,12.65,5.66,11.93,6.9-.29.5-8.32-4.25-8.58-3.8-.86,1.49,10.74,4.75,10.11,5.85-.8,1.38-26.07-12.9-26.74-11.73-.57,1,21.26,10.59,20.52,11.87S188.81,461.15,187.76,463c-.45.78,15.42,7.41,14.77,8.54-.37.64-13.67-3-14.06-2.29-.56,1,8.56,3.32,7.85,4.54-.56,1-23-11.25-23.55-10.28s8,2.9,7.23,4.18c-.12.21-4.24,3.06-4.36,3.27-.53.92,1.62-.08,1.18.68-.27.47-8.41-2.36-8.65-1.93s11.05,5.88,10.83,6.27c-.37.64-10.61-4.71-10.82-4.34s7.7,4,7.5,4.34-7.31-2.27-7.48-2c0,0,3.45,1.91,3.41,2s-3.29-2-3.41-1.78c0,0,3.09,1.76,3.08,1.78" fill="none" stroke="#999" stroke-linecap="round" stroke-linejoin="round" stroke-width="1.15"/><path d="M501.83,360.31c3.95,0-482-.23-481.44.06-3.45-.35-.42-13.69-.86-13.63-8-.05,482.08-.47,479.43-.22C505.62,346.35,501.47,360.56,501.83,360.31Z" fill="none" stroke="#666" stroke-width="2.89"/><path d="M190.85,285c.83,2.37-58.08,1.61-58.08.47-.67,1.14-.76-78.8.66-76.37-.59-.63,58.16-.17,57.43,0C191.87,208.12,191.63,288.11,190.85,285Zm-44.55-13.14c-.19,1.54,32,1,31.4.31.28.74.22-51.3.35-49.73.32-.41-32-.11-31.75,0C146.22,221.81,146.09,273.89,146.31,271.86Z" fill="none" stroke="#666" stroke-width="2.89"/><path d="M255.42,284c.83,3.79-58.08,2.57-58.08.76-.67,1.83-.76-126.08.66-122.2-.59-1,58.16-.26,57.43-.07C256.44,161,256.2,289,255.42,284ZM210.88,270.9c-.19,3,32,2,31.4.59.28,1.43.22-98.59.35-95.55.32-.78-32-.21-31.75-.05C210.79,174.71,210.66,274.8,210.88,270.9Z" fill="none" stroke="#666" stroke-width="2.89"/><path d="M320,283.07c.83,5.22-58.08,3.53-58.08,1-.67,2.51-.76-173.37.66-168-.59-1.38,58.16-.36,57.43-.09C321,113.93,320.77,289.93,320,283.07Zm-44.55-13.14c-.19,4.39,32,3,31.4.88.28,2.11.22-145.88.35-141.39.32-1.16-32-.31-31.75-.08C275.36,127.61,275.23,275.7,275.45,269.93Z" fill="none" stroke="#666" stroke-width="2.89"/><path d="M384.57,283.67c.83,4.33-58.08,2.93-58.08.86-.67,2.08-.76-143.84.66-139.41-.59-1.14,58.16-.3,57.43-.08C385.58,143.34,385.34,289.36,384.57,283.67ZM340,270.53c-.19,3.5,32,2.37,31.4.7.28,1.69.22-116.35.35-112.77.32-.93-32-.24-31.75-.06C339.93,157,339.8,275.14,340,270.53Z" fill="none" stroke="#666" stroke-width="2.89"/><path d="M470.9,324.7C477,332.54,41.1,330,41.14,326.26,36.21,330,35.48,80.8,46,88.52c-4.33-10.08-3.34-15.31,8-14.9-.93-3.09,409.11.71,409.74,1.24,11.56-4.26,19.72-2.76,11.47,15.84C480.77,79.23,476.65,335,470.9,324.7ZM53,311.56c-2.44,7,414.59,4.75,406.45,1.4,3.56,3.38,2.87-231.8,4.55-224.66,4.12-2.51-1.83-1.69-7.54-1.32,7-2.76-403.67.64-395.21,1.11-5.48-3.81-4.7-8-4.25,2.17C54.06,79.76,50.2,320.78,53,311.56Z" fill="none" stroke="#666" stroke-width="2.89"/><path d="M31.47,408.79C16.2,420.18,10.94,406.1,11,388.32c-5.6,5-6.44-332.65,5.52-321.46-4.93-15.34-1.09-23.53,15-22.94-.94-4.49,453.68,1,454.51,1.8,16.37-6.19,28.37-3.41,19,24.32,6.37-16.65,9.5,331.45-.88,326,1.69,18.39-6,17.29-21.06,16.71C489.45,415.6,28.54,423.77,31.47,408.79Zm.25-359.43c-7.76,3.57-7.11,4.36-7.07,11.29-5.29-1.72-6.08,329.94,5.22,333.93-4.66,9.18-6.66,15.44,1.88,9-1.13,2.83,453.51,7.95,454,1.66,8.8,1.25,14.52-10,5.65-7.72,6-9.06,9-331-.83-329.7,1.6-6.35-.07-21.23-7.61-14.77C489.29,48.69,28.71,56.26,31.72,49.36Z" fill="none" stroke="#666" stroke-width="2.89"/><path d="M282.84,389.2c.58.15-48.29.26-47.61.26-.11-.16-1-13.7-.47-14,.09.36,48.68.24,48.27.31C283.61,375.67,283.59,389.55,282.84,389.2Z" fill="none" stroke="#666" stroke-width="2.89"/><path d="M210.57,469.81c-.11.27-13.42-2.13-13.39-2.91,0,1.24,13-59.1,12.78-57.22.11-1.16,13.63,1.73,13.53,2.76C223.67,409.95,210.54,469.44,210.57,469.81Z" fill="none" stroke="#666" stroke-width="2.89"/><path d="M307.83,470.28c-.05.23-13.09-60.33-13.06-57.89-.19-2.71,13.46-3.51,13.18-3.24-.17-.25,13.1,57.21,12.95,57.17C321.26,466.73,307.54,471.38,307.83,470.28Z" fill="none" stroke="#666" stroke-width="2.89"/><path d="M346.19,474.95c2.52.41-176.82.28-176.8.08-2,.2-2.33-13.75,2-13.32-1.78-.11,177,0,174.82,0C349.29,461.53,348.56,475.49,346.19,474.95Z" fill="none" stroke="#666" stroke-width="2.89"/><path d="M500.63,360.27c-2.93-.13-483.13-.08-484,.13,12.28-.29-5.55-13.7-9.35-14.07,16.26.39,491.07.32,497.36.16C501.72,346.66,501.25,360.24,500.63,360.27Z" fill="none" stroke="#4c4c4c" stroke-width="2.16"/><path d="M192.38,287.16c-1.12-1-58.61-.63-60.28,0,1.8-.35,1.17-78.72-.38-78.69,1.11.43,59.61.37,60.91-.11C191.66,207.91,191.62,285.74,192.38,287.16ZM146.5,273.27c0-.66,31.75-.41,31.48,0,.33-.22,0-51.26-.21-51.23,0,.28-31.21.24-31.15-.07S146.72,272.34,146.5,273.27Z" fill="none" stroke="#4c4c4c" stroke-width="2.16"/><path d="M257,287.5c-1.12-1.61-58.61-1-60.29,0,1.8-.55,1.17-126-.38-125.91,1.11.7,59.61.6,60.91-.18C256.23,160.69,256.19,285.22,257,287.5Zm-45.89-13.89c0-1.26,31.75-.79,31.48,0,.33-.43,0-98.49-.21-98.45,0,.54-31.21.47-31.15-.14S211.29,271.83,211.07,273.61Z" fill="none" stroke="#4c4c4c" stroke-width="2.16"/><path d="M321.53,287.84c-1.12-2.22-58.61-1.38-60.29,0,1.8-.76,1.17-173.21-.38-173.13,1.11,1,59.61.82,60.91-.25C320.8,113.46,320.76,284.71,321.53,287.84Zm-45.89-13.89c0-1.87,31.75-1.16,31.48,0,.33-.64,0-145.74-.21-145.68,0,.8-31.21.69-31.15-.21S275.86,271.31,275.64,273.95Z" fill="none" stroke="#4c4c4c" stroke-width="2.16"/><path d="M386.1,287.63c-1.12-1.84-58.61-1.15-60.29,0,1.8-.63,1.17-143.7-.38-143.64,1.11.79,59.61.68,60.91-.2C385.37,142.95,385.33,285,386.1,287.63Zm-45.89-13.89c0-1.49,31.75-.93,31.48,0,.33-.51,0-116.24-.21-116.19,0,.64-31.21.55-31.15-.17S340.43,271.63,340.21,273.74Z" fill="none" stroke="#4c4c4c" stroke-width="2.16"/><path d="M482.24,331.87c-8.27-3.33-433.7-2.08-446.09,0,13.3-1.14,8.68-245.52-2.83-245.1,8.22-7,16-13.83,25.34-15.43,1.24-1.55,404.52,2.2,403.67-2.49,5.78,2.72,10.25,10.34,18.15,17.49C482.83,85.87,476.58,327.16,482.24,331.87ZM55.44,318c.43-3,410.93-1.86,407.49,0,4.29-1,0-231.61-2.66-231.48-.47.6.09-.12,8.44-1.56-6.71-1.38-408,2-416.64-2.22,5,2.43,2.47,3.87,1.7,3.4C64.17,85.94,58.31,313.77,55.44,318Z" fill="none" stroke="#4c4c4c" stroke-width="2.16"/><path d="M34.9,419.21C22.45,414.37,19.4,406,5.3,396.07c15.14-1.2,9.89-332.3-3.23-331.67C11.43,53.48,22.95,43,37,40.66c1.29-2.25,448.45,3.19,447.36-3.61C494.29,41,502,52.66,511,63.78c2.7-.78-15.64,331.2-9.62,327.95,6.79,16.08-6.5,24.6-13,27.52C485.89,416.53,37.93,412.36,34.9,419.21ZM34.72,52c-4.75,2.5-2.11,8.32-15.43,9.41,14.31,5.27,9.34,330.27-3,337.23,8.84.18,14.2,4,20.43,8.87,1.47-9.08,448.57-4,447.78-3.36,2.39-3.34,4.2-6.1,12.69-6.08,2.55-7.1-14.77-331.28-9.09-340.68,6.42,4.61-.63-1.07.25-5.36C485.68,56.55,37.83,52.68,34.72,52Z" fill="none" stroke="#4c4c4c" stroke-width="2.16"/><path d="M283.76,389.38c-.19-.12-48.14-.28-49.63.08,1.88-.3,1.92-13.86.37-14,.2.31,49,.22,48.32,0C283.16,375.67,282.26,389.12,283.76,389.38Z" fill="none" stroke="#4c4c4c" stroke-width="2.16"/><path d="M210.82,470.62c-.3-.81-13.86-3.87-13.92-3.4.41-.29,13.39-58.32,13.61-59-.46.46,12.39,3.82,13.2,2.71C223.24,411.9,210,469.41,210.82,470.62Z" fill="none" stroke="#4c4c4c" stroke-width="2.16"/><path d="M307.5,470.1c.11-.59-12.89-58.49-12.94-58.74.67-.11,12.92-2.38,13-4.07.62,1.74,13.32,59.61,13.66,60C321,466.93,307.8,470,307.5,470.1Z" fill="none" stroke="#4c4c4c" stroke-width="2.16"/><path d="M350.86,475.32c-3.4-.18-178.42-.11-183.52,0,5.47-.06,3.57-13.73-1.17-13.73,3.38.08,181.46.07,185.43,0C348.65,461.5,348.53,475.08,350.86,475.32Z" fill="none" stroke="#4c4c4c" stroke-width="2.16"/></svg>